<?xml version="1.0" encoding="iso-8859-1"?>
<!-- Generator: Adobe Illustrator 15.0.0, SVG Export Plug-In . SVG Version: 6.00 Build 0)  -->
<!DOCTYPE svg PUBLIC "-//W3C//DTD SVG 1.1//EN" "http://www.w3.org/Graphics/SVG/1.1/DTD/svg11.dtd">
<svg version="1.1" xmlns="http://www.w3.org/2000/svg" xmlns:xlink="http://www.w3.org/1999/xlink" x="0px" y="0px"
	 width="37.244px" height="21.689px" viewBox="0 0 37.244 21.689" style="enable-background:new 0 0 37.244 21.689;"
	 xml:space="preserve">
<g id="_x36_6">
	<path style="fill:#706F6F;" d="M0.972,5.588L16.328,20.75c0.147,0.146,0.332,0.215,0.498,0.326
		c0.191,0.129,0.363,0.291,0.574,0.374c0.182,0.075,0.379,0.077,0.574,0.116c0.217,0.045,0.428,0.123,0.65,0.123
		c0.22,0,0.434-0.078,0.651-0.123c0.191-0.039,0.389-0.041,0.574-0.116c0.207-0.083,0.383-0.245,0.571-0.374
		c0.165-0.111,0.351-0.181,0.497-0.326L36.27,5.588c1.288-1.266,1.301-3.333,0.032-4.617C35.664,0.324,34.822,0,33.98,0
		c-0.829,0-1.658,0.314-2.296,0.942L18.623,13.84L5.557,0.942C4.923,0.314,4.094,0,3.265,0C2.423,0,1.578,0.324,0.94,0.971
		C-0.325,2.254-0.313,4.322,0.972,5.588z"/>
</g>
<g id="Layer_1">
</g>
</svg>
