<?xml version="1.0" encoding="iso-8859-1"?>
<!-- Generator: Adobe Illustrator 15.0.0, SVG Export Plug-In . SVG Version: 6.00 Build 0)  -->
<!DOCTYPE svg PUBLIC "-//W3C//DTD SVG 1.1//EN" "http://www.w3.org/Graphics/SVG/1.1/DTD/svg11.dtd">
<svg version="1.1" xmlns="http://www.w3.org/2000/svg" xmlns:xlink="http://www.w3.org/1999/xlink" x="0px" y="0px"
	 width="57.868px" height="23.197px" viewBox="0 0 57.868 23.197" style="enable-background:new 0 0 57.868 23.197;"
	 xml:space="preserve">
<g id="_x35_1">
	<path style="fill:#706F6F;" d="M0.189,18.373c0.199-0.434,0.391-0.87,0.607-1.295C5.961,6.951,16.441,0,28.576,0
		c6.502,0,12.48,2.03,17.463,5.422l4.668-4.666c0.645-0.641,1.588-0.871,2.449-0.598c0.377,0.12,0.707,0.329,0.979,0.598
		c0.348,0.346,0.59,0.797,0.68,1.302l3.02,17.512c0.131,0.775-0.121,1.567-0.68,2.125c-0.555,0.557-1.348,0.807-2.123,0.676
		l-17.514-3.02c-0.502-0.087-0.953-0.326-1.301-0.676c-0.271-0.27-0.477-0.604-0.598-0.979c-0.273-0.865-0.043-1.809,0.598-2.449
		l4.451-4.45c-3.537-2.121-7.646-3.375-12.092-3.375c-9.035,0-16.883,5.085-20.896,12.522c-0.324,0.603-0.586,1.236-0.861,1.868
		c-0.646,0.764-1.578,1.259-2.639,1.343c-0.104,0.008-0.195,0.041-0.301,0.041c-0.953,0-1.795-0.383-2.471-0.955
		C0.563,21.531,0,20.505,0,19.315C0,18.98,0.111,18.683,0.189,18.373z"/>
</g>
<g id="Layer_1">
</g>
</svg>
