<?xml version="1.0" encoding="iso-8859-1"?>
<!-- Generator: Adobe Illustrator 15.0.0, SVG Export Plug-In . SVG Version: 6.00 Build 0)  -->
<!DOCTYPE svg PUBLIC "-//W3C//DTD SVG 1.1//EN" "http://www.w3.org/Graphics/SVG/1.1/DTD/svg11.dtd">
<svg version="1.1" xmlns="http://www.w3.org/2000/svg" xmlns:xlink="http://www.w3.org/1999/xlink" x="0px" y="0px"
	 width="49.134px" height="37.244px" viewBox="0 0 49.134 37.244" style="enable-background:new 0 0 49.134 37.244;"
	 xml:space="preserve">
<g id="_x35_7">
	<path style="fill:#706F6F;" d="M0.124,19.275c0.039,0.191,0.042,0.389,0.115,0.574c0.083,0.207,0.245,0.382,0.376,0.57
		c0.111,0.166,0.179,0.351,0.325,0.497l15.161,15.355c1.266,1.285,3.335,1.298,4.616,0.029c0.647-0.638,0.973-1.479,0.973-2.321
		c0-0.829-0.315-1.658-0.943-2.296l-9.674-9.795h34.795c1.805,0,3.266-1.462,3.266-3.264c0-1.803-1.461-3.265-3.266-3.265H11.073
		l9.674-9.801c0.628-0.634,0.943-1.463,0.943-2.292c0-0.842-0.325-1.687-0.973-2.324c-1.281-1.266-3.351-1.253-4.616,0.032
		L0.94,16.329c-0.146,0.146-0.214,0.332-0.325,0.498c-0.131,0.191-0.293,0.363-0.376,0.574c-0.073,0.182-0.076,0.379-0.115,0.574
		C0.079,18.191,0,18.401,0,18.625C0,18.844,0.079,19.058,0.124,19.275z"/>
</g>
<g id="Layer_1">
</g>
</svg>
