<?xml version="1.0" encoding="iso-8859-1"?>
<!-- Generator: Adobe Illustrator 15.0.0, SVG Export Plug-In . SVG Version: 6.00 Build 0)  -->
<!DOCTYPE svg PUBLIC "-//W3C//DTD SVG 1.1//EN" "http://www.w3.org/Graphics/SVG/1.1/DTD/svg11.dtd">
<svg version="1.1" xmlns="http://www.w3.org/2000/svg" xmlns:xlink="http://www.w3.org/1999/xlink" x="0px" y="0px"
	 width="46.321px" height="29.926px" viewBox="0 0 46.321 29.926" style="enable-background:new 0 0 46.321 29.926;"
	 xml:space="preserve">
<g id="_x32_3">
	<path style="fill:#706F6F;" d="M45.113,12.624l-17.145-12.1C27.475,0.176,26.9,0,26.317,0c-0.45,0-0.902,0.106-1.313,0.322
		c-0.953,0.491-1.547,1.471-1.547,2.54v24.204c0,1.068,0.594,2.049,1.547,2.541c0.411,0.215,0.863,0.32,1.313,0.32
		c0.583,0,1.157-0.176,1.651-0.525l17.145-12.1c0.756-0.537,1.208-1.409,1.208-2.338S45.869,13.161,45.113,12.624z"/>
	<path style="fill:#706F6F;" d="M21.656,12.624L4.515,0.524C4.021,0.176,3.443,0,2.863,0C2.414,0,1.961,0.106,1.547,0.321
		C0.597,0.812,0,1.792,0,2.861v24.204c0,1.068,0.597,2.049,1.547,2.541c0.414,0.215,0.867,0.32,1.316,0.32
		c0.58,0,1.157-0.176,1.651-0.525l17.142-12.1c0.758-0.537,1.211-1.409,1.211-2.338S22.414,13.161,21.656,12.624z"/>
</g>
<g id="Layer_1">
</g>
</svg>
