<?xml version="1.0" encoding="iso-8859-1"?>
<!-- Generator: Adobe Illustrator 15.0.0, SVG Export Plug-In . SVG Version: 6.00 Build 0)  -->
<!DOCTYPE svg PUBLIC "-//W3C//DTD SVG 1.1//EN" "http://www.w3.org/Graphics/SVG/1.1/DTD/svg11.dtd">
<svg version="1.1" xmlns="http://www.w3.org/2000/svg" xmlns:xlink="http://www.w3.org/1999/xlink" x="0px" y="0px"
	 width="21.691px" height="37.244px" viewBox="0 0 21.691 37.244" style="enable-background:new 0 0 21.691 37.244;"
	 xml:space="preserve">
<g id="_x36_5">
	<path style="fill:#706F6F;" d="M16.102,0.973L0.941,16.329c-0.147,0.146-0.214,0.332-0.325,0.497
		c-0.131,0.191-0.293,0.364-0.376,0.574c-0.073,0.182-0.077,0.379-0.115,0.574C0.08,18.19,0,18.401,0,18.625
		c0,0.22,0.08,0.434,0.125,0.65c0.038,0.191,0.042,0.389,0.115,0.574c0.083,0.207,0.246,0.382,0.376,0.57
		c0.111,0.166,0.178,0.351,0.325,0.497l15.161,15.355c1.266,1.285,3.335,1.298,4.617,0.029c0.646-0.638,0.973-1.479,0.973-2.321
		c0-0.829-0.316-1.658-0.944-2.296L7.85,18.625L20.747,5.558c0.628-0.635,0.944-1.463,0.944-2.292c0-0.842-0.326-1.687-0.973-2.324
		C19.437-0.325,17.367-0.312,16.102,0.973z"/>
</g>
<g id="Layer_1">
</g>
</svg>
