<?xml version="1.0" encoding="iso-8859-1"?>
<!-- Generator: Adobe Illustrator 15.0.0, SVG Export Plug-In . SVG Version: 6.00 Build 0)  -->
<!DOCTYPE svg PUBLIC "-//W3C//DTD SVG 1.1//EN" "http://www.w3.org/Graphics/SVG/1.1/DTD/svg11.dtd">
<svg version="1.1" xmlns="http://www.w3.org/2000/svg" xmlns:xlink="http://www.w3.org/1999/xlink" x="0px" y="0px"
	 width="35.965px" height="37.244px" viewBox="0 0 35.965 37.244" style="enable-background:new 0 0 35.965 37.244;"
	 xml:space="preserve">
<g id="_x32_1">
	<path style="fill:#706F6F;" d="M30.376,0.973L15.215,16.328c-0.146,0.146-0.214,0.332-0.325,0.497
		c-0.131,0.191-0.293,0.364-0.376,0.574c-0.073,0.182-0.076,0.38-0.115,0.574c-0.044,0.217-0.124,0.427-0.124,0.65
		c0,0.22,0.08,0.434,0.124,0.65c0.039,0.191,0.042,0.389,0.115,0.574c0.083,0.207,0.246,0.382,0.376,0.57
		c0.111,0.166,0.179,0.351,0.325,0.497l15.161,15.355c1.266,1.285,3.335,1.298,4.616,0.029c0.647-0.638,0.973-1.479,0.973-2.321
		c0-0.829-0.315-1.658-0.943-2.296l-12.897-13.06L35.021,5.558c0.628-0.635,0.943-1.463,0.943-2.292
		c0-0.842-0.325-1.687-0.973-2.324C33.711-0.325,31.642-0.313,30.376,0.973z"/>
	<path style="fill:#706F6F;" d="M3.265,37.148C1.46,37.148,0,35.687,0,33.884V3.361c0-1.804,1.46-3.266,3.265-3.266
		s3.265,1.462,3.265,3.266v30.522C6.529,35.687,5.069,37.148,3.265,37.148z"/>
</g>
<g id="Layer_1">
</g>
</svg>
