<?xml version="1.0" encoding="iso-8859-1"?>
<!-- Generator: Adobe Illustrator 15.0.0, SVG Export Plug-In . SVG Version: 6.00 Build 0)  -->
<!DOCTYPE svg PUBLIC "-//W3C//DTD SVG 1.1//EN" "http://www.w3.org/Graphics/SVG/1.1/DTD/svg11.dtd">
<svg version="1.1" xmlns="http://www.w3.org/2000/svg" xmlns:xlink="http://www.w3.org/1999/xlink" x="0px" y="0px"
	 width="16.892px" height="15.238px" viewBox="0 0 16.892 15.238" style="enable-background:new 0 0 16.892 15.238;"
	 xml:space="preserve">
<g id="Layer_1">
</g>
<g id="Layer_2">
	<g>
		<path style="fill:#706F6F;" d="M8.967,0.179l7.649,6.454c0.537,0.417,0.238,1.314-0.479,1.314h-1.732v6.513
			c0,0.42-0.358,0.777-0.776,0.777h-2.63c-0.418,0-0.777-0.357-0.777-0.777v-4.063H6.637v4.063c0,0.42-0.299,0.777-0.717,0.777H3.23
			c-0.359,0-0.717-0.357-0.717-0.777V7.948H0.78c-0.717,0-1.076-0.897-0.478-1.314l7.649-6.454C8.25-0.06,8.668-0.06,8.967,0.179z"
			/>
	</g>
</g>
</svg>
