<?xml version="1.0" encoding="iso-8859-1"?>
<!-- Generator: Adobe Illustrator 15.0.0, SVG Export Plug-In . SVG Version: 6.00 Build 0)  -->
<!DOCTYPE svg PUBLIC "-//W3C//DTD SVG 1.1//EN" "http://www.w3.org/Graphics/SVG/1.1/DTD/svg11.dtd">
<svg version="1.1" xmlns="http://www.w3.org/2000/svg" xmlns:xlink="http://www.w3.org/1999/xlink" x="0px" y="0px"
	 width="37.243px" height="49.133px" viewBox="0 0 37.243 49.133" style="enable-background:new 0 0 37.243 49.133;"
	 xml:space="preserve">
<g id="_x35_8">
	<path style="fill:#706F6F;" d="M19.274,49.008c0.19-0.037,0.389-0.041,0.573-0.114c0.207-0.083,0.383-0.245,0.571-0.376
		c0.165-0.111,0.351-0.179,0.497-0.326l15.355-15.16c1.284-1.266,1.298-3.335,0.028-4.617c-0.638-0.646-1.479-0.973-2.321-0.973
		c-0.829,0-1.657,0.316-2.296,0.944l-9.794,9.674V3.264C21.889,1.459,20.425,0,18.624,0c-1.805,0-3.266,1.46-3.266,3.265V38.06
		l-9.801-9.674c-0.635-0.628-1.464-0.944-2.293-0.944c-0.842,0-1.687,0.326-2.324,0.973c-1.266,1.282-1.253,3.352,0.032,4.617
		l15.355,15.16c0.146,0.147,0.331,0.215,0.497,0.326c0.191,0.131,0.363,0.293,0.574,0.376c0.182,0.073,0.379,0.077,0.573,0.114
		c0.218,0.045,0.428,0.125,0.651,0.125C18.844,49.133,19.058,49.053,19.274,49.008z"/>
</g>
<g id="Layer_1">
</g>
</svg>
