<?xml version="1.0" encoding="iso-8859-1"?>
<!-- Generator: Adobe Illustrator 15.0.0, SVG Export Plug-In . SVG Version: 6.00 Build 0)  -->
<!DOCTYPE svg PUBLIC "-//W3C//DTD SVG 1.1//EN" "http://www.w3.org/Graphics/SVG/1.1/DTD/svg11.dtd">
<svg version="1.1" xmlns="http://www.w3.org/2000/svg" xmlns:xlink="http://www.w3.org/1999/xlink" x="0px" y="0px"
	 width="36.481px" height="37.244px" viewBox="0 0 36.481 37.244" style="enable-background:new 0 0 36.481 37.244;"
	 xml:space="preserve">
<g id="_x32_0">
	<path style="fill:#706F6F;" d="M5.589,36.271L20.75,20.916c0.146-0.146,0.214-0.332,0.325-0.497
		c0.131-0.191,0.294-0.364,0.376-0.574c0.074-0.182,0.077-0.379,0.115-0.574c0.045-0.217,0.124-0.427,0.124-0.65
		c0-0.22-0.079-0.434-0.124-0.65c-0.038-0.191-0.041-0.389-0.115-0.574c-0.082-0.208-0.245-0.383-0.376-0.571
		c-0.111-0.166-0.179-0.351-0.325-0.497L5.589,0.973C4.323-0.313,2.254-0.325,0.973,0.944C0.325,1.582,0,2.423,0,3.265
		c0,0.829,0.315,1.658,0.943,2.295l12.897,13.06L0.943,31.687C0.315,32.321,0,33.15,0,33.979c0,0.842,0.325,1.688,0.973,2.325
		C2.254,37.569,4.323,37.557,5.589,36.271z"/>
	<path style="fill:#706F6F;" d="M33.217,37.148c-1.805,0-3.265-1.462-3.265-3.266V3.361c0-1.803,1.46-3.265,3.265-3.265
		s3.265,1.462,3.265,3.265v30.522C36.481,35.687,35.021,37.148,33.217,37.148z"/>
</g>
<g id="Layer_1">
</g>
</svg>
