<?xml version="1.0" encoding="iso-8859-1"?>
<!-- Generator: Adobe Illustrator 15.0.0, SVG Export Plug-In . SVG Version: 6.00 Build 0)  -->
<!DOCTYPE svg PUBLIC "-//W3C//DTD SVG 1.1//EN" "http://www.w3.org/Graphics/SVG/1.1/DTD/svg11.dtd">
<svg version="1.1" xmlns="http://www.w3.org/2000/svg" xmlns:xlink="http://www.w3.org/1999/xlink" x="0px" y="0px" width="46.32px"
	 height="29.926px" viewBox="0 0 46.32 29.926" style="enable-background:new 0 0 46.32 29.926;" xml:space="preserve">
<g id="_x32_2">
	<path style="fill:#706F6F;" d="M1.208,17.301l17.144,12.101c0.495,0.349,1.068,0.524,1.652,0.524c0.449,0,0.902-0.107,1.313-0.322
		c0.953-0.49,1.546-1.471,1.546-2.539V2.861c0-1.068-0.593-2.048-1.546-2.541C20.906,0.106,20.453,0,20.004,0
		c-0.584,0-1.157,0.175-1.652,0.524l-17.144,12.1C0.452,13.161,0,14.033,0,14.962C0,15.892,0.452,16.764,1.208,17.301z"/>
	<path style="fill:#706F6F;" d="M24.665,17.301l17.142,12.101c0.494,0.349,1.07,0.524,1.651,0.524c0.449,0,0.902-0.107,1.316-0.322
		c0.95-0.49,1.546-1.471,1.546-2.539V2.861c0-1.068-0.596-2.048-1.546-2.541C44.36,0.106,43.907,0,43.458,0
		c-0.581,0-1.157,0.175-1.651,0.524l-17.142,12.1c-0.759,0.537-1.211,1.409-1.211,2.338C23.454,15.892,23.906,16.764,24.665,17.301z
		"/>
</g>
<g id="Layer_1">
</g>
</svg>
