<?xml version="1.0" encoding="iso-8859-1"?>
<!-- Generator: Adobe Illustrator 15.0.0, SVG Export Plug-In . SVG Version: 6.00 Build 0)  -->
<!DOCTYPE svg PUBLIC "-//W3C//DTD SVG 1.1//EN" "http://www.w3.org/Graphics/SVG/1.1/DTD/svg11.dtd">
<svg version="1.1" xmlns="http://www.w3.org/2000/svg" xmlns:xlink="http://www.w3.org/1999/xlink" x="0px" y="0px"
	 width="57.868px" height="23.197px" viewBox="0 0 57.868 23.197" style="enable-background:new 0 0 57.868 23.197;"
	 xml:space="preserve">
<g id="_x35_2">
	<path style="fill:#706F6F;" d="M57.677,18.373c-0.197-0.434-0.389-0.87-0.605-1.295C51.905,6.951,41.426,0,29.291,0
		C22.79,0,16.812,2.03,11.828,5.422L7.16,0.756C6.516,0.115,5.572-0.115,4.711,0.158c-0.376,0.12-0.708,0.329-0.979,0.598
		c-0.348,0.346-0.59,0.797-0.68,1.302L0.034,19.57c-0.13,0.775,0.122,1.567,0.68,2.125c0.555,0.557,1.349,0.807,2.123,0.676
		l17.515-3.02c0.5-0.087,0.953-0.326,1.301-0.676c0.271-0.27,0.475-0.604,0.596-0.979c0.274-0.865,0.045-1.809-0.596-2.449
		l-4.451-4.45c3.535-2.121,7.646-3.375,12.09-3.375c9.036,0,16.882,5.085,20.897,12.522c0.325,0.603,0.587,1.236,0.86,1.868
		c0.647,0.764,1.578,1.259,2.641,1.343c0.102,0.008,0.194,0.041,0.299,0.041c0.954,0,1.796-0.383,2.472-0.955
		c0.845-0.711,1.409-1.737,1.409-2.927C57.868,18.98,57.757,18.683,57.677,18.373z"/>
</g>
<g id="Layer_1">
</g>
</svg>
