<?xml version="1.0" encoding="iso-8859-1"?>
<!-- Generator: Adobe Illustrator 15.0.0, SVG Export Plug-In . SVG Version: 6.00 Build 0)  -->
<!DOCTYPE svg PUBLIC "-//W3C//DTD SVG 1.1//EN" "http://www.w3.org/Graphics/SVG/1.1/DTD/svg11.dtd">
<svg version="1.1" xmlns="http://www.w3.org/2000/svg" xmlns:xlink="http://www.w3.org/1999/xlink" x="0px" y="0px" width="34.68px"
	 height="37.244px" viewBox="0 0 34.68 37.244" style="enable-background:new 0 0 34.68 37.244;" xml:space="preserve">
<g id="_x33_9">
	<path style="fill:#706F6F;" d="M31.415,20.727H9.925L7.85,18.624l2.158-2.188h21.407c1.805,0,3.265-1.462,3.265-3.265
		s-1.46-3.265-3.265-3.265h-14.96l4.291-4.35c0.629-0.635,0.944-1.463,0.944-2.292c0-0.842-0.325-1.687-0.973-2.324
		c-1.282-1.267-3.351-1.254-4.616,0.031L0.94,16.328c-0.147,0.146-0.214,0.332-0.325,0.497c-0.131,0.191-0.294,0.364-0.377,0.574
		c-0.073,0.182-0.076,0.38-0.114,0.574C0.079,18.19,0,18.4,0,18.624c0,0.22,0.079,0.434,0.124,0.65
		c0.038,0.191,0.041,0.389,0.114,0.574c0.083,0.207,0.246,0.382,0.377,0.57c0.111,0.166,0.178,0.351,0.325,0.497l15.161,15.355
		c1.266,1.285,3.334,1.298,4.616,0.029c0.647-0.638,0.973-1.479,0.973-2.321c0-0.829-0.315-1.658-0.944-2.296l-4.371-4.427h15.04
		c1.805,0,3.265-1.462,3.265-3.266C34.68,22.188,33.22,20.727,31.415,20.727z"/>
</g>
<g id="Layer_1">
</g>
</svg>
