<?xml version="1.0" encoding="iso-8859-1"?>
<!-- Generator: Adobe Illustrator 15.0.0, SVG Export Plug-In . SVG Version: 6.00 Build 0)  -->
<!DOCTYPE svg PUBLIC "-//W3C//DTD SVG 1.1//EN" "http://www.w3.org/Graphics/SVG/1.1/DTD/svg11.dtd">
<svg version="1.1" xmlns="http://www.w3.org/2000/svg" xmlns:xlink="http://www.w3.org/1999/xlink" x="0px" y="0px"
	 width="37.242px" height="21.689px" viewBox="0 0 37.242 21.689" style="enable-background:new 0 0 37.242 21.689;"
	 xml:space="preserve">
<g id="_x36_7">
	<path style="fill:#706F6F;" d="M36.271,16.102L20.914,0.939c-0.146-0.145-0.332-0.214-0.497-0.325
		c-0.19-0.129-0.364-0.292-0.572-0.375c-0.184-0.075-0.382-0.076-0.574-0.116C19.054,0.079,18.842,0,18.62,0
		s-0.434,0.078-0.65,0.123c-0.193,0.04-0.391,0.042-0.574,0.116c-0.209,0.083-0.383,0.246-0.572,0.375
		c-0.166,0.111-0.351,0.18-0.497,0.325L0.971,16.102c-1.283,1.266-1.296,3.334-0.029,4.617c0.638,0.646,1.481,0.971,2.323,0.971
		c0.829,0,1.658-0.314,2.294-0.941L18.62,7.85l13.063,12.898c0.637,0.627,1.465,0.941,2.294,0.941c0.842,0,1.686-0.324,2.323-0.971
		C37.567,19.436,37.555,17.367,36.271,16.102z"/>
</g>
<g id="Layer_1">
</g>
</svg>
