<?xml version="1.0" encoding="iso-8859-1"?>
<!-- Generator: Adobe Illustrator 15.0.0, SVG Export Plug-In . SVG Version: 6.00 Build 0)  -->
<!DOCTYPE svg PUBLIC "-//W3C//DTD SVG 1.1//EN" "http://www.w3.org/Graphics/SVG/1.1/DTD/svg11.dtd">
<svg version="1.1" xmlns="http://www.w3.org/2000/svg" xmlns:xlink="http://www.w3.org/1999/xlink" x="0px" y="0px"
	 width="49.134px" height="37.244px" viewBox="0 0 49.134 37.244" style="enable-background:new 0 0 49.134 37.244;"
	 xml:space="preserve">
<g id="_x35_9">
	<path style="fill:#706F6F;" d="M49.009,17.97c-0.038-0.191-0.041-0.389-0.115-0.574c-0.082-0.208-0.245-0.383-0.376-0.571
		c-0.111-0.166-0.179-0.351-0.325-0.498L33.032,0.973c-1.266-1.285-3.336-1.298-4.617-0.028c-0.647,0.638-0.973,1.479-0.973,2.321
		c0,0.829,0.315,1.658,0.943,2.296l9.674,9.794H3.265C1.46,15.355,0,16.817,0,18.621s1.46,3.265,3.265,3.265H38.06l-9.674,9.801
		c-0.628,0.635-0.943,1.464-0.943,2.292c0,0.842,0.325,1.688,0.973,2.325c1.281,1.266,3.352,1.253,4.617-0.032l15.16-15.355
		c0.146-0.146,0.214-0.331,0.325-0.497c0.131-0.191,0.294-0.363,0.376-0.574c0.074-0.182,0.077-0.379,0.115-0.574
		c0.045-0.217,0.125-0.427,0.125-0.65C49.134,18.4,49.054,18.187,49.009,17.97z"/>
</g>
<g id="Layer_1">
</g>
</svg>
