<?xml version="1.0" encoding="iso-8859-1"?>
<!-- Generator: Adobe Illustrator 15.0.0, SVG Export Plug-In . SVG Version: 6.00 Build 0)  -->
<!DOCTYPE svg PUBLIC "-//W3C//DTD SVG 1.1//EN" "http://www.w3.org/Graphics/SVG/1.1/DTD/svg11.dtd">
<svg version="1.1" xmlns="http://www.w3.org/2000/svg" xmlns:xlink="http://www.w3.org/1999/xlink" x="0px" y="0px"
	 width="37.246px" height="49.133px" viewBox="0 0 37.246 49.133" style="enable-background:new 0 0 37.246 49.133;"
	 xml:space="preserve">
<g id="_x35_6">
	<path style="fill:#706F6F;" d="M17.969,0.124c-0.191,0.039-0.389,0.042-0.573,0.115c-0.205,0.083-0.383,0.245-0.568,0.376
		c-0.166,0.111-0.351,0.179-0.497,0.325L0.975,16.101c-1.288,1.266-1.301,3.335-0.032,4.617c0.639,0.647,1.479,0.972,2.321,0.972
		c0.829,0,1.658-0.315,2.296-0.943l9.795-9.674v34.794c0,1.805,1.463,3.266,3.265,3.266c1.804,0,3.264-1.461,3.264-3.266V11.073
		l9.802,9.674c0.638,0.628,1.467,0.943,2.296,0.943c0.842,0,1.684-0.325,2.32-0.972c1.27-1.282,1.257-3.351-0.031-4.617L20.915,0.94
		c-0.146-0.146-0.332-0.214-0.498-0.325c-0.19-0.131-0.363-0.293-0.573-0.376c-0.179-0.074-0.376-0.077-0.574-0.115
		C19.053,0.079,18.843,0,18.62,0C18.403,0,18.186,0.079,17.969,0.124z"/>
</g>
<g id="Layer_1">
</g>
</svg>
