<?xml version="1.0" encoding="iso-8859-1"?>
<!-- Generator: Adobe Illustrator 15.0.0, SVG Export Plug-In . SVG Version: 6.00 Build 0)  -->
<!DOCTYPE svg PUBLIC "-//W3C//DTD SVG 1.1//EN" "http://www.w3.org/Graphics/SVG/1.1/DTD/svg11.dtd">
<svg version="1.1" xmlns="http://www.w3.org/2000/svg" xmlns:xlink="http://www.w3.org/1999/xlink" x="0px" y="0px"
	 width="42.352px" height="36.3px" viewBox="0 0 42.352 36.3" style="enable-background:new 0 0 42.352 36.3;" xml:space="preserve"
	>
<g id="_x32_4">
	<path style="fill:#706F6F;" d="M18.151,0C8.13,0,0,8.131,0,18.151C0,28.173,8.13,36.3,18.151,36.3c5.021,0,9.536-2.037,12.83-5.321
		l-2.873-2.863c-2.538,2.558-6.064,4.155-9.957,4.155c-7.809,0-14.118-6.313-14.118-14.119c0-7.805,6.31-14.115,14.118-14.115
		c7.802,0,14.114,6.311,14.114,14.115h-6.048l8.149,8.128l0.137-0.284l7.848-7.844H36.3C36.3,8.131,28.179,0,18.151,0"/>
	<polygon style="fill:#706F6F;" points="14.016,10.085 14.016,20.17 22.646,25.29 24.104,22.852 17.045,18.655 17.045,10.085 	"/>
</g>
<g id="Layer_1">
</g>
</svg>
