<?xml version="1.0" encoding="iso-8859-1"?>
<!-- Generator: Adobe Illustrator 15.0.0, SVG Export Plug-In . SVG Version: 6.00 Build 0)  -->
<!DOCTYPE svg PUBLIC "-//W3C//DTD SVG 1.1//EN" "http://www.w3.org/Graphics/SVG/1.1/DTD/svg11.dtd">
<svg version="1.1" id="Layer_1" xmlns="http://www.w3.org/2000/svg" xmlns:xlink="http://www.w3.org/1999/xlink" x="0px" y="0px"
	 width="36.33px" height="43.598px" viewBox="0 0 36.33 43.598" style="enable-background:new 0 0 36.33 43.598;"
	 xml:space="preserve">
<g id="Layer_48">
	<g>
		<rect x="3.632" y="0.001" style="fill:#706F6F;" width="29.066" height="3.635"/>
		<rect x="3.632" y="39.971" style="fill:#706F6F;" width="29.066" height="3.627"/>
		<path style="fill:#706F6F;" d="M36.331,32.702V10.906c0-2.002-1.633-3.64-3.631-3.64H3.633c-2,0-3.633,1.638-3.633,3.64v21.797
			c0,1.998,1.633,3.631,3.633,3.631H32.7C34.698,36.333,36.331,34.7,36.331,32.702z M18.169,12.264c2.246,0,4.08,1.836,4.08,4.086
			c0,2.255-1.834,4.089-4.08,4.089c-2.256,0-4.088-1.834-4.088-4.089C14.083,14.1,15.915,12.264,18.169,12.264z M27.249,30.884H9.08
			v-2.727c0-3.031,6.053-4.539,9.09-4.539c3.027,0,9.08,1.508,9.08,4.539V30.884z"/>
	</g>
</g>
<g id="Layer_1_1_">
</g>
</svg>
