<?xml version="1.0" encoding="iso-8859-1"?>
<!-- Generator: Adobe Illustrator 15.0.0, SVG Export Plug-In . SVG Version: 6.00 Build 0)  -->
<!DOCTYPE svg PUBLIC "-//W3C//DTD SVG 1.1//EN" "http://www.w3.org/Graphics/SVG/1.1/DTD/svg11.dtd">
<svg version="1.1" xmlns="http://www.w3.org/2000/svg" xmlns:xlink="http://www.w3.org/1999/xlink" x="0px" y="0px"
	 width="58.354px" height="43.77px" viewBox="0 0 58.354 43.77" style="enable-background:new 0 0 58.354 43.77;"
	 xml:space="preserve">
<g id="_x39_3">
	<path style="fill:#706F6F;" d="M47.049,14.689C45.396,6.3,38.025,0,29.18,0c-3.602,0-6.932,1.049-9.752,2.844l3.551,3.553
		c1.846-0.973,3.961-1.531,6.201-1.531c7.385,0,13.373,5.982,13.373,13.373v1.215h3.645c4.035,0,7.295,3.262,7.295,7.297
		c0,2.742-1.557,5.127-3.791,6.367l3.52,3.523c3.094-2.205,5.133-5.809,5.133-9.891C58.354,20.33,53.367,15.125,47.049,14.689
		 M7.295,3.091l6.689,6.662C6.227,10.091,0,16.464,0,24.318c0,8.043,6.543,14.586,14.59,14.586h28.521l4.865,4.865l3.086-3.092
		L10.381,0L7.295,3.091z M18.795,14.589l19.453,19.456H14.59c-5.379,0-9.729-4.357-9.729-9.727c0-5.379,4.35-9.729,9.729-9.729
		H18.795z"/>
</g>
<g id="Layer_1">
</g>
</svg>
