<?xml version="1.0" encoding="iso-8859-1"?>
<!-- Generator: Adobe Illustrator 15.0.0, SVG Export Plug-In . SVG Version: 6.00 Build 0)  -->
<!DOCTYPE svg PUBLIC "-//W3C//DTD SVG 1.1//EN" "http://www.w3.org/Graphics/SVG/1.1/DTD/svg11.dtd">
<svg version="1.1" xmlns="http://www.w3.org/2000/svg" xmlns:xlink="http://www.w3.org/1999/xlink" x="0px" y="0px"
	 width="42.352px" height="36.3px" viewBox="0 0 42.352 36.3" style="enable-background:new 0 0 42.352 36.3;" xml:space="preserve"
	>
<g id="_x32_5">
	<path style="fill:#706F6F;" d="M24.199,0C14.172,0,6.051,8.131,6.051,18.151H0l7.846,7.844l0.138,0.284l8.149-8.128h-6.049
		c0-7.805,6.313-14.115,14.115-14.115c7.809,0,14.119,6.311,14.119,14.115c0,7.806-6.311,14.119-14.119,14.119
		c-3.893,0-7.419-1.598-9.957-4.155l-2.873,2.863c3.294,3.284,7.809,5.321,12.83,5.321c10.021,0,18.152-8.127,18.152-18.148
		C42.352,8.131,34.221,0,24.199,0"/>
	<polygon style="fill:#706F6F;" points="22.182,10.085 22.182,20.17 30.813,25.29 32.27,22.852 25.21,18.655 25.21,10.085 	"/>
</g>
<g id="Layer_1">
</g>
</svg>
