<?xml version="1.0" encoding="iso-8859-1"?>
<!-- Generator: Adobe Illustrator 15.0.0, SVG Export Plug-In . SVG Version: 6.00 Build 0)  -->
<!DOCTYPE svg PUBLIC "-//W3C//DTD SVG 1.1//EN" "http://www.w3.org/Graphics/SVG/1.1/DTD/svg11.dtd">
<svg version="1.1" xmlns="http://www.w3.org/2000/svg" xmlns:xlink="http://www.w3.org/1999/xlink" x="0px" y="0px"
	 width="63.248px" height="38.866px" viewBox="0 0 63.248 38.866" style="enable-background:new 0 0 63.248 38.866;"
	 xml:space="preserve">
<g id="_x32_">
	<g>
		<path style="fill:#706F6F;" d="M31.664,0C20.936,0,12.253,8.707,12.253,19.433c0,10.729,8.683,19.434,19.411,19.434
			c10.748,0,19.453-8.704,19.453-19.434C51.117,8.707,42.412,0,31.664,0 M31.689,34.979c-8.593,0-15.553-6.96-15.553-15.547
			c0-8.589,6.96-15.547,15.553-15.547c8.58,0,15.544,6.958,15.544,15.547C47.233,28.02,40.27,34.979,31.689,34.979"/>
		<polygon style="fill:#706F6F;" points="30.532,9.396 27.618,9.396 27.618,21.056 37.817,27.178 39.275,24.786 30.532,19.599 		"/>
	</g>
	<path style="fill:#706F6F;" d="M62.779,18.527l-6.641-4.69c-0.191-0.134-0.412-0.197-0.638-0.197c-0.176,0-0.351,0.038-0.511,0.121
		c-0.366,0.191-0.596,0.574-0.596,0.985v9.377c0,0.411,0.229,0.791,0.596,0.982c0.16,0.083,0.335,0.124,0.511,0.124
		c0.226,0,0.446-0.07,0.638-0.204l6.641-4.687c0.297-0.207,0.469-0.546,0.469-0.906C63.248,19.073,63.076,18.734,62.779,18.527z"/>
	<path style="fill:#706F6F;" d="M0.469,20.339l6.642,4.687c0.191,0.134,0.414,0.204,0.638,0.204c0.175,0,0.351-0.041,0.51-0.124
		c0.37-0.191,0.6-0.571,0.6-0.982v-9.377c0-0.411-0.229-0.794-0.6-0.985c-0.159-0.083-0.335-0.121-0.51-0.121
		c-0.224,0-0.446,0.063-0.638,0.197l-6.642,4.69C0.176,18.734,0,19.073,0,19.433C0,19.793,0.176,20.132,0.469,20.339z"/>
</g>
<g id="Layer_1">
</g>
</svg>
