<?xml version="1.0" encoding="iso-8859-1"?>
<!-- Generator: Adobe Illustrator 15.0.0, SVG Export Plug-In . SVG Version: 6.00 Build 0)  -->
<!DOCTYPE svg PUBLIC "-//W3C//DTD SVG 1.1//EN" "http://www.w3.org/Graphics/SVG/1.1/DTD/svg11.dtd">
<svg version="1.1" xmlns="http://www.w3.org/2000/svg" xmlns:xlink="http://www.w3.org/1999/xlink" x="0px" y="0px" width="45.05px"
	 height="45.053px" viewBox="0 0 45.05 45.053" style="enable-background:new 0 0 45.05 45.053;" xml:space="preserve">
<g id="_x33_">
	<path style="fill:#706F6F;" d="M22.523,45.053C10.104,45.053,0,34.948,0,22.529C0,10.107,10.104,0,22.523,0
		S45.05,10.107,45.05,22.529C45.05,34.948,34.942,45.053,22.523,45.053 M22.523,3.626c-10.42,0-18.9,8.478-18.9,18.903
		c0,10.42,8.48,18.897,18.9,18.897c10.423,0,18.897-8.478,18.897-18.897C41.421,12.104,32.946,3.626,22.523,3.626"/>
	<g>
		<path style="fill:#706F6F;" d="M22.533,7.433c-8.341,0-15.107,6.746-15.107,15.094c0,8.351,6.767,15.094,15.107,15.094
			c8.328,0,15.094-6.743,15.094-15.094C37.627,14.179,30.861,7.433,22.533,7.433z M22.526,26.126c-1.989,0-3.603-1.607-3.603-3.6
			c0-1.993,1.613-3.6,3.603-3.6c1.986,0,3.604,1.606,3.604,3.6C26.13,24.519,24.513,26.126,22.526,26.126z"/>
	</g>
</g>
<g id="Layer_1">
</g>
</svg>
