<?xml version="1.0" encoding="iso-8859-1"?>
<!-- Generator: Adobe Illustrator 15.0.0, SVG Export Plug-In . SVG Version: 6.00 Build 0)  -->
<!DOCTYPE svg PUBLIC "-//W3C//DTD SVG 1.1//EN" "http://www.w3.org/Graphics/SVG/1.1/DTD/svg11.dtd">
<svg version="1.1" xmlns="http://www.w3.org/2000/svg" xmlns:xlink="http://www.w3.org/1999/xlink" x="0px" y="0px"
	 width="41.523px" height="46.14px" viewBox="0 0 41.523 46.14" style="enable-background:new 0 0 41.523 46.14;"
	 xml:space="preserve">
<g id="Layer_42">
	<g>
		<path style="fill:#706F6F;" d="M4.612,46.139H36.91c2.537,0,4.613-2.072,4.613-4.617V9.228c0-2.535-2.076-4.613-4.613-4.613
			h-2.307V0H29.99v4.614H11.534V0H6.92v4.614H4.612c-2.561,0-4.592,2.078-4.592,4.613L0,41.521C0,44.066,2.051,46.139,4.612,46.139z
			 M4.612,16.148H36.91v25.373H4.612V16.148z"/>
		<rect x="9.225" y="20.762" style="fill:#706F6F;" width="4.617" height="4.615"/>
		<rect x="18.459" y="20.762" style="fill:#706F6F;" width="4.609" height="4.615"/>
		<rect x="27.682" y="20.762" style="fill:#706F6F;" width="4.615" height="4.615"/>
	</g>
</g>
<g id="Layer_1">
</g>
</svg>
