<?xml version="1.0" encoding="iso-8859-1"?>
<!-- Generator: Adobe Illustrator 15.0.0, SVG Export Plug-In . SVG Version: 6.00 Build 0)  -->
<!DOCTYPE svg PUBLIC "-//W3C//DTD SVG 1.1//EN" "http://www.w3.org/Graphics/SVG/1.1/DTD/svg11.dtd">
<svg version="1.1" xmlns="http://www.w3.org/2000/svg" xmlns:xlink="http://www.w3.org/1999/xlink" x="0px" y="0px" width="49.52px"
	 height="49.522px" viewBox="0 0 49.52 49.522" style="enable-background:new 0 0 49.52 49.522;" xml:space="preserve">
<g id="Layer_46">
	<g>
		<path style="fill:#706F6F;" d="M24.762,49.521c13.662,0,24.758-11.092,24.758-24.761C49.52,11.093,38.424,0,24.762,0
			C11.096,0,0,11.093,0,24.76C0,38.43,11.096,49.521,24.762,49.521z M24.762,4.955c10.918,0,19.807,8.883,19.807,19.806
			c0,10.923-8.889,19.806-19.807,19.806S4.955,35.684,4.955,24.76C4.955,13.837,13.844,4.955,24.762,4.955z"/>
		<path style="fill:#706F6F;" d="M17.186,32.512c0.791,0.938,1.783,1.703,2.963,2.252c1.191,0.545,2.605,0.842,4.215,0.842
			c1.166,0,2.254-0.201,3.271-0.572c1.014-0.369,1.902-0.893,2.668-1.555c0.771-0.67,1.391-1.439,1.838-2.328
			c0.441-0.896,0.713-1.836,0.736-2.848h-4.426c-0.023,0.514-0.15,0.992-0.373,1.436c-0.225,0.443-0.523,0.816-0.891,1.135
			c-0.373,0.322-0.793,0.57-1.291,0.746c-0.469,0.172-0.963,0.223-1.488,0.246c-0.883-0.023-1.627-0.199-2.197-0.572
			c-0.621-0.395-1.115-0.91-1.467-1.529c-0.342-0.623-0.615-1.365-0.736-2.184c-0.125-0.816-0.201-1.658-0.201-2.474V24.44
			c0-0.865,0.076-1.688,0.201-2.504c0.121-0.818,0.395-1.529,0.736-2.152c0.352-0.617,0.846-1.141,1.467-1.533
			c0.594-0.376,1.336-0.552,2.252-0.573c0.57,0.021,1.092,0.127,1.559,0.324c0.494,0.22,0.939,0.517,1.285,0.89
			c0.35,0.369,0.625,0.816,0.842,1.316c0.223,0.492,0.324,1.037,0.354,1.578h4.426c-0.051-1.16-0.271-2.225-0.693-3.191
			c-0.42-0.966-0.988-1.808-1.73-2.499c-0.742-0.697-1.635-1.236-2.676-1.635c-1.035-0.396-2.178-0.568-3.439-0.568
			c-1.607,0-3.025,0.268-4.209,0.838c-1.191,0.574-2.18,1.311-2.975,2.277c-0.793,0.967-1.387,2.079-1.754,3.37
			c-0.373,1.287-0.592,2.621-0.592,4.063v0.666c0,1.431,0.197,2.777,0.57,4.062C15.793,30.455,16.393,31.568,17.186,32.512z"/>
	</g>
</g>
<g id="Layer_1">
</g>
</svg>
