<?xml version="1.0" encoding="iso-8859-1"?>
<!-- Generator: Adobe Illustrator 15.0.0, SVG Export Plug-In . SVG Version: 6.00 Build 0)  -->
<!DOCTYPE svg PUBLIC "-//W3C//DTD SVG 1.1//EN" "http://www.w3.org/Graphics/SVG/1.1/DTD/svg11.dtd">
<svg version="1.1" id="Layer_1" xmlns="http://www.w3.org/2000/svg" xmlns:xlink="http://www.w3.org/1999/xlink" x="0px" y="0px"
	 width="47.869px" height="43.516px" viewBox="-424 210.485 47.869 43.516"
	 style="enable-background:new -424 210.485 47.869 43.516;" xml:space="preserve">
<g id="Layer_23">
	<g>
		<path style="fill:#706F6F;" d="M-406.592,230.826c-2.027-2.246-3.697-4.701-5.023-7.289h-4.354
			c1.588,3.545,3.764,6.896,6.486,9.92l-11.078,10.926l3.09,3.09l10.879-10.879l6.766,6.766l1.656-4.44l-5.529-5.461l0.066-0.064
			c3.789-4.223,6.486-9.073,8.074-14.207h6.377v-4.35h-15.234v-4.353h-4.354v4.353H-424v4.33h24.305
			C-401.154,223.365-403.461,227.348-406.592,230.826z"/>
		<path style="fill:#706F6F;" d="M-390.275,227.889L-400.064,254h4.35l2.438-6.527h10.338l2.455,6.527h4.352l-9.791-26.111H-390.275
			z M-391.621,243.121l3.523-9.42l3.525,9.42H-391.621z"/>
	</g>
</g>
<g id="Layer_1_1_">
</g>
</svg>
