<?xml version="1.0" encoding="iso-8859-1"?>
<!-- Generator: Adobe Illustrator 15.0.0, SVG Export Plug-In . SVG Version: 6.00 Build 0)  -->
<!DOCTYPE svg PUBLIC "-//W3C//DTD SVG 1.1//EN" "http://www.w3.org/Graphics/SVG/1.1/DTD/svg11.dtd">
<svg version="1.1" xmlns="http://www.w3.org/2000/svg" xmlns:xlink="http://www.w3.org/1999/xlink" x="0px" y="0px"
	 width="28.915px" height="43.67px" viewBox="0 0 28.915 43.67" style="enable-background:new 0 0 28.915 43.67;"
	 xml:space="preserve">
<g id="_x31_6">
	<path style="fill:#706F6F;" d="M9.604,4.558L5.6,0.557c-0.367-0.373-0.95-0.373-1.32,0L0.277,4.558C0.105,4.729,0,4.969,0.01,5.218
		L0,33.983h9.881V5.23C9.881,4.969,9.792,4.746,9.604,4.558"/>
	<path style="fill:#706F6F;" d="M0,41.626c0,1.03,0.829,1.859,1.859,1.859h6.166c1.027,0,1.855-0.829,1.855-1.859v-4.824H0V41.626z"
		/>
	<path style="fill:#706F6F;" d="M26.732,13.259c2.91-2.911,2.91-7.627,0-10.541c-1.986-1.989-5.086-3.032-7.908-2.634
		c1.107,1.106,1.729,3.543,0,5.268c-2.184,2.19-2.184,5.724,0,7.907C21.012,15.449,24.545,15.449,26.732,13.259"/>
	<path style="fill:#706F6F;" d="M26.4,41.814v-23.61h-7.247v23.61c0,1.026,0.832,1.855,1.858,1.855h3.533
		C25.571,43.67,26.4,42.841,26.4,41.814"/>
</g>
<g id="Layer_1">
</g>
</svg>
