<?xml version="1.0" encoding="iso-8859-1"?>
<!-- Generator: Adobe Illustrator 15.0.0, SVG Export Plug-In . SVG Version: 6.00 Build 0)  -->
<!DOCTYPE svg PUBLIC "-//W3C//DTD SVG 1.1//EN" "http://www.w3.org/Graphics/SVG/1.1/DTD/svg11.dtd">
<svg version="1.1" xmlns="http://www.w3.org/2000/svg" xmlns:xlink="http://www.w3.org/1999/xlink" x="0px" y="0px"
	 width="15.791px" height="13.91px" viewBox="0 0 15.791 13.91" style="enable-background:new 0 0 15.791 13.91;"
	 xml:space="preserve">
<g id="Layer_1">
</g>
<g id="Layer_2">
	<g id="Int&#xE9;">
		<g id="V2-Map-filter" transform="translate(-13.000000, -63.000000)">
			<g id="basic-map-copy" transform="translate(13.000000, 63.000000)">
				<path id="Combined-Shape" style="fill:#706F6F;" d="M10.277,2.615L6.142,0.954v10.398l4.151,1.667
					c-0.011-0.034-0.017-0.071-0.017-0.108L10.277,2.615L10.277,2.615z M11.028,2.544v10.367c0,0.01,0,0.021-0.001,0.031
					l4.012-1.612V0.932L11.028,2.544z M10.521,1.903c0.04-0.016,0.086-0.023,0.131-0.023c0.004,0,0.008,0,0.012,0l4.61-1.853
					c0.247-0.099,0.517,0.082,0.517,0.348v11.21c0,0.152-0.094,0.291-0.236,0.349l-4.851,1.949c-0.09,0.036-0.19,0.036-0.281,0
					l-4.717-1.896l-5.2,1.899C0.26,13.977,0,13.795,0,13.534V2.325c0-0.157,0.1-0.3,0.247-0.354l5.337-1.949
					c0.088-0.031,0.184-0.03,0.269,0.005L10.521,1.903z M5.39,11.303V0.895L0.753,2.589v10.407L5.39,11.303z"/>
			</g>
		</g>
	</g>
</g>
</svg>
