<?xml version="1.0" encoding="iso-8859-1"?>
<!-- Generator: Adobe Illustrator 15.0.0, SVG Export Plug-In . SVG Version: 6.00 Build 0)  -->
<!DOCTYPE svg PUBLIC "-//W3C//DTD SVG 1.1//EN" "http://www.w3.org/Graphics/SVG/1.1/DTD/svg11.dtd">
<svg version="1.1" id="Layer_1" xmlns="http://www.w3.org/2000/svg" xmlns:xlink="http://www.w3.org/1999/xlink" x="0px" y="0px"
	 width="37.429px" height="50.217px" viewBox="0 0 37.429 50.217" style="enable-background:new 0 0 37.429 50.217;"
	 xml:space="preserve">
<g id="Layer_8">
	<path style="fill:#706F6F;" d="M33.117,50.218l0.445-0.017c2.174-0.221,3.867-2,3.867-4.174V43.32v-3.569v-4.185v-22.16
		c-0.003-0.547-0.227-1.073-0.625-1.463L25.109,0.611l-0.25-0.217c-0.364-0.252-0.809-0.396-1.271-0.396h-11.51h-1.279H4.32
		C1.931-0.001,0,1.87,0,4.184v41.844c0,2.317,1.932,4.188,4.32,4.188h28.796V50.218z M23.488,4.948l9.061,8.789h-9.061V4.948z
		 M4.322,5.233c0-0.578,0.48-1.049,1.081-1.049h14.74V17.08h12.975v27.902c0,0.582-0.479,1.045-1.075,1.045H5.402
		c-0.6,0-1.081-0.463-1.081-1.045V5.233z"/>
</g>
<g id="Layer_1_1_">
</g>
</svg>
