<?xml version="1.0" encoding="iso-8859-1"?>
<!-- Generator: Adobe Illustrator 15.0.0, SVG Export Plug-In . SVG Version: 6.00 Build 0)  -->
<!DOCTYPE svg PUBLIC "-//W3C//DTD SVG 1.1//EN" "http://www.w3.org/Graphics/SVG/1.1/DTD/svg11.dtd">
<svg version="1.1" id="Layer_1" xmlns="http://www.w3.org/2000/svg" xmlns:xlink="http://www.w3.org/1999/xlink" x="0px" y="0px"
	 width="45.357px" height="45.361px" viewBox="0 0 45.357 45.361" style="enable-background:new 0 0 45.357 45.361;"
	 xml:space="preserve">
<g id="Layer_51">
	<path style="fill:#706F6F;" d="M22.679,0C10.161,0,0,10.162,0,22.681C0,35.2,10.161,45.362,22.679,45.362
		c12.521,0,22.68-10.162,22.68-22.681C45.358,10.162,35.2,0,22.679,0z M22.679,6.804c3.767,0,6.805,3.035,6.805,6.804
		c0,3.764-3.038,6.805-6.805,6.805c-3.766,0-6.804-3.041-6.804-6.805C15.875,9.84,18.913,6.804,22.679,6.804z M22.679,39.01
		c-5.666,0-10.681-2.899-13.604-7.305c0.063-4.514,9.066-6.982,13.604-6.982c4.517,0,13.541,2.47,13.611,6.982
		C33.36,36.109,28.352,39.01,22.679,39.01z"/>
</g>
<g id="Layer_1_1_">
</g>
</svg>
