<?xml version="1.0" encoding="iso-8859-1"?>
<!-- Generator: Adobe Illustrator 15.0.0, SVG Export Plug-In . SVG Version: 6.00 Build 0)  -->
<!DOCTYPE svg PUBLIC "-//W3C//DTD SVG 1.1//EN" "http://www.w3.org/Graphics/SVG/1.1/DTD/svg11.dtd">
<svg version="1.1" xmlns="http://www.w3.org/2000/svg" xmlns:xlink="http://www.w3.org/1999/xlink" x="0px" y="0px" width="40.33px"
	 height="40.333px" viewBox="0 0 40.33 40.333" style="enable-background:new 0 0 40.33 40.333;" xml:space="preserve">
<g id="_x32_6">
	<path style="fill:#706F6F;" d="M20.145,0C9.011,0,0,9.032,0,20.166c0,11.135,9.011,20.167,20.145,20.167
		c11.153,0,20.186-9.032,20.186-20.167C40.33,9.032,31.298,0,20.145,0 M20.167,36.297c-8.918,0-16.14-7.219-16.14-16.131
		c0-8.914,7.222-16.133,16.14-16.133c8.908,0,16.13,7.219,16.13,16.133C36.297,29.078,29.075,36.297,20.167,36.297"/>
	<polygon style="fill:#706F6F;" points="18.971,9.75 15.945,9.75 15.945,21.85 26.528,28.204 28.042,25.721 18.971,20.339 	"/>
</g>
<g id="Layer_1">
</g>
</svg>
