<?xml version="1.0" encoding="UTF-8" standalone="no"?>
<svg
   xmlns:osb="http://www.openswatchbook.org/uri/2009/osb"
   xmlns:dc="http://purl.org/dc/elements/1.1/"
   xmlns:cc="http://creativecommons.org/ns#"
   xmlns:rdf="http://www.w3.org/1999/02/22-rdf-syntax-ns#"
   xmlns:svg="http://www.w3.org/2000/svg"
   xmlns="http://www.w3.org/2000/svg"
   xmlns:sodipodi="http://sodipodi.sourceforge.net/DTD/sodipodi-0.dtd"
   xmlns:inkscape="http://www.inkscape.org/namespaces/inkscape"
   viewBox="0 0 140 140"
   height="140"
   width="140"
   xml:space="preserve"
   version="1.1"
   id="svg2"
   inkscape:version="0.91 r13725"
   sodipodi:docname="Cholera.svg"><sodipodi:namedview
     pagecolor="#ffffff"
     bordercolor="#666666"
     borderopacity="1"
     objecttolerance="10"
     gridtolerance="10"
     guidetolerance="10"
     inkscape:pageopacity="0"
     inkscape:pageshadow="2"
     inkscape:window-width="1366"
     inkscape:window-height="705"
     id="namedview22"
     showgrid="false"
     inkscape:zoom="3.3714286"
     inkscape:cx="21.327647"
     inkscape:cy="80.923666"
     inkscape:window-x="1020"
     inkscape:window-y="-4"
     inkscape:window-maximized="1"
     inkscape:current-layer="layer2" /><metadata
     id="metadata8"><rdf:RDF><cc:Work
         rdf:about=""><dc:format>image/svg+xml</dc:format><dc:type
           rdf:resource="http://purl.org/dc/dcmitype/StillImage" /><dc:title /></cc:Work></rdf:RDF></metadata><defs
     id="defs6"><linearGradient
       id="linearGradient4153"
       osb:paint="solid"><stop
         style="stop-color:#e2001a;stop-opacity:1;"
         offset="0"
         id="stop4155" /></linearGradient><clipPath
       id="clipPath16"
       clipPathUnits="userSpaceOnUse"><path
         id="path18"
         d="M 0,112 112,112 112,0 0,0 0,112 Z" /></clipPath><clipPath
       id="clipPath16-6"
       clipPathUnits="userSpaceOnUse"><path
         inkscape:connector-curvature="0"
         id="path18-0"
         d="M 0,112 112,112 112,0 0,0 0,112 Z" /></clipPath><clipPath
       id="clipPath16-2"
       clipPathUnits="userSpaceOnUse"><path
         inkscape:connector-curvature="0"
         id="path18-3"
         d="M 0,112 112,112 112,0 0,0 0,112 Z" /></clipPath><clipPath
       id="clipPath16-9"
       clipPathUnits="userSpaceOnUse"><path
         inkscape:connector-curvature="0"
         id="path18-02"
         d="M 0,112 112,112 112,0 0,0 0,112 Z" /></clipPath><clipPath
       id="clipPath16-1"
       clipPathUnits="userSpaceOnUse"><path
         inkscape:connector-curvature="0"
         id="path18-9"
         d="M 0,112 112,112 112,0 0,0 0,112 Z" /></clipPath><clipPath
       id="clipPath16-8"
       clipPathUnits="userSpaceOnUse"><path
         inkscape:connector-curvature="0"
         id="path18-32"
         d="M 0,112 112,112 112,0 0,0 0,112 Z" /></clipPath><clipPath
       id="clipPath16-5"
       clipPathUnits="userSpaceOnUse"><path
         inkscape:connector-curvature="0"
         id="path18-5"
         d="M 0,112 112,112 112,0 0,0 0,112 Z" /></clipPath><clipPath
       id="clipPath16-28"
       clipPathUnits="userSpaceOnUse"><path
         inkscape:connector-curvature="0"
         id="path18-97"
         d="M 0,112 112,112 112,0 0,0 0,112 Z" /></clipPath><clipPath
       id="clipPath16-4"
       clipPathUnits="userSpaceOnUse"><path
         inkscape:connector-curvature="0"
         id="path18-2"
         d="M 0,112 112,112 112,0 0,0 0,112 Z" /></clipPath><clipPath
       id="clipPath16-7"
       clipPathUnits="userSpaceOnUse"><path
         inkscape:connector-curvature="0"
         id="path18-4"
         d="M 0,112 112,112 112,0 0,0 0,112 Z" /></clipPath><clipPath
       id="clipPath16-96"
       clipPathUnits="userSpaceOnUse"><path
         inkscape:connector-curvature="0"
         id="path18-45"
         d="M 0,112 112,112 112,0 0,0 0,112 Z" /></clipPath><clipPath
       id="clipPath16-99"
       clipPathUnits="userSpaceOnUse"><path
         inkscape:connector-curvature="0"
         id="path18-6"
         d="M 0,112 112,112 112,0 0,0 0,112 Z" /></clipPath><clipPath
       id="clipPath16-51"
       clipPathUnits="userSpaceOnUse"><path
         inkscape:connector-curvature="0"
         id="path18-48"
         d="M 0,112 112,112 112,0 0,0 0,112 Z" /></clipPath><clipPath
       id="clipPath16-43"
       clipPathUnits="userSpaceOnUse"><path
         inkscape:connector-curvature="0"
         id="path18-55"
         d="M 0,112 112,112 112,0 0,0 0,112 Z" /></clipPath><clipPath
       id="clipPath16-92"
       clipPathUnits="userSpaceOnUse"><path
         inkscape:connector-curvature="0"
         id="path18-22"
         d="M 0,112 112,112 112,0 0,0 0,112 Z" /></clipPath><clipPath
       id="clipPath16-22"
       clipPathUnits="userSpaceOnUse"><path
         inkscape:connector-curvature="0"
         id="path18-57"
         d="M 0,112 112,112 112,0 0,0 0,112 Z" /></clipPath><clipPath
       id="clipPath16-82"
       clipPathUnits="userSpaceOnUse"><path
         inkscape:connector-curvature="0"
         id="path18-33"
         d="M 0,112 112,112 112,0 0,0 0,112 Z" /></clipPath><clipPath
       id="clipPath16-54"
       clipPathUnits="userSpaceOnUse"><path
         inkscape:connector-curvature="0"
         id="path18-7"
         d="M 0,112 112,112 112,0 0,0 0,112 Z" /></clipPath><clipPath
       id="clipPath16-14"
       clipPathUnits="userSpaceOnUse"><path
         inkscape:connector-curvature="0"
         id="path18-24"
         d="M 0,112 112,112 112,0 0,0 0,112 Z" /></clipPath><clipPath
       id="clipPath16-97"
       clipPathUnits="userSpaceOnUse"><path
         inkscape:connector-curvature="0"
         id="path18-8"
         d="M 0,112 112,112 112,0 0,0 0,112 Z" /></clipPath><clipPath
       id="clipPath24"
       clipPathUnits="userSpaceOnUse"><path
         inkscape:connector-curvature="0"
         id="path26"
         d="M 0,112 112,112 112,0 0,0 0,112 Z" /></clipPath><clipPath
       id="clipPath16-26"
       clipPathUnits="userSpaceOnUse"><path
         inkscape:connector-curvature="0"
         id="path18-78"
         d="M 0,112 112,112 112,0 0,0 0,112 Z" /></clipPath><clipPath
       id="clipPath16-78"
       clipPathUnits="userSpaceOnUse"><path
         inkscape:connector-curvature="0"
         id="path18-027"
         d="M 0,112 112,112 112,0 0,0 0,112 Z" /></clipPath><clipPath
       id="clipPath16-283"
       clipPathUnits="userSpaceOnUse"><path
         inkscape:connector-curvature="0"
         id="path18-36"
         d="M 0,112 112,112 112,0 0,0 0,112 Z" /></clipPath><clipPath
       id="clipPath16-821"
       clipPathUnits="userSpaceOnUse"><path
         inkscape:connector-curvature="0"
         id="path18-80"
         d="M 0,112 112,112 112,0 0,0 0,112 Z" /></clipPath><clipPath
       id="clipPath16-73"
       clipPathUnits="userSpaceOnUse"><path
         inkscape:connector-curvature="0"
         id="path18-1"
         d="M 0,112 112,112 112,0 0,0 0,112 Z" /></clipPath><clipPath
       id="clipPath20"
       clipPathUnits="userSpaceOnUse"><path
         inkscape:connector-curvature="0"
         id="path22"
         d="M 0,112 112,112 112,0 0,0 0,112 Z" /></clipPath><clipPath
       id="clipPath16-93"
       clipPathUnits="userSpaceOnUse"><path
         inkscape:connector-curvature="0"
         id="path18-58"
         d="M 0,112 112,112 112,0 0,0 0,112 Z" /></clipPath><clipPath
       id="clipPath16-76"
       clipPathUnits="userSpaceOnUse"><path
         inkscape:connector-curvature="0"
         id="path18-93"
         d="M 0,112 112,112 112,0 0,0 0,112 Z" /></clipPath><clipPath
       id="clipPath16-50"
       clipPathUnits="userSpaceOnUse"><path
         inkscape:connector-curvature="0"
         id="path18-26"
         d="M 0,112 112,112 112,0 0,0 0,112 Z" /></clipPath><clipPath
       id="clipPath22"
       clipPathUnits="userSpaceOnUse"><path
         inkscape:connector-curvature="0"
         id="path24"
         d="M 0,112 112,112 112,0 0,0 0,112 Z" /></clipPath><clipPath
       id="clipPath16-74"
       clipPathUnits="userSpaceOnUse"><path
         inkscape:connector-curvature="0"
         id="path18-62"
         d="M 0,112 112,112 112,0 0,0 0,112 Z" /></clipPath><clipPath
       id="clipPath16-15"
       clipPathUnits="userSpaceOnUse"><path
         inkscape:connector-curvature="0"
         id="path18-75"
         d="M 0,112 112,112 112,0 0,0 0,112 Z" /></clipPath><clipPath
       id="clipPath16-978"
       clipPathUnits="userSpaceOnUse"><path
         inkscape:connector-curvature="0"
         id="path18-79"
         d="M 0,112 112,112 112,0 0,0 0,112 Z" /></clipPath></defs><g
     inkscape:groupmode="layer"
     id="layer2"
     inkscape:label="circle"><g
       id="g4210"><ellipse
         style="fill:#ffffff;fill-opacity:1;stroke:#e2001a;stroke-width:6.10551453;stroke-miterlimit:4;stroke-dasharray:none;stroke-opacity:1"
         id="path4149"
         cx="69.851715"
         cy="69.703392"
         rx="66.629448"
         ry="66.184532" /><g
         style="fill:#e2001a;fill-opacity:1"
         id="g10"
         transform="matrix(1.199689,0,0,-1.2217516,3.7674366,135.38068)"><g
           style="fill:#e2001a;fill-opacity:1"
           id="g12"><g
             style="fill:#e2001a;fill-opacity:1"
             id="g14"
             clip-path="url(#clipPath16-978)"><g
               style="fill:#e2001a;fill-opacity:1"
               id="g20"
               transform="translate(71.2051,36.5581)"><path
                 d="m 0,0 c -2.189,0 -3.972,1.769 -3.998,3.953 0,0.017 0.002,0.033 0.002,0.05 0,1.948 -0.641,3.749 -1.723,5.205 1.571,1.282 3.894,1.191 5.357,-0.271 0.097,-0.098 0.225,-0.147 0.353,-0.147 0.128,0 0.257,0.049 0.355,0.147 0.194,0.195 0.194,0.511 -0.001,0.707 -1.831,1.831 -4.742,1.941 -6.704,0.331 -1.321,1.411 -3.101,2.386 -5.1,2.682 0.207,2.013 1.912,3.589 3.979,3.589 0.276,0 0.5,0.224 0.5,0.5 0,0.276 -0.224,0.5 -0.5,0.5 -2.588,0 -4.723,-1.977 -4.975,-4.501 -0.097,0.004 -0.193,0.008 -0.291,0.008 -1.158,0 -2.277,0.164 -3.339,0.466 -0.011,0.017 -0.019,0.035 -0.032,0.051 -0.651,0.848 -0.932,1.898 -0.793,2.957 0.14,1.06 0.683,2.001 1.531,2.651 0.219,0.169 0.261,0.482 0.092,0.702 -0.168,0.219 -0.482,0.26 -0.701,0.092 -1.059,-0.813 -1.739,-1.99 -1.913,-3.314 -0.12,-0.909 0.014,-1.811 0.37,-2.631 -2.011,0.856 -3.747,2.234 -5.037,3.963 0.002,0.019 0.005,0.038 0.005,0.057 0,2.205 1.794,4 4,4 0.276,0 0.5,0.224 0.5,0.5 0,0.276 -0.224,0.5 -0.5,0.5 -2.333,0 -4.291,-1.608 -4.841,-3.772 -1.012,1.781 -1.592,3.837 -1.592,6.027 0,0.061 0.003,0.119 0.004,0.179 0.013,0.013 0.028,0.026 0.04,0.041 1.344,1.75 3.859,2.081 5.609,0.738 0.219,-0.168 0.533,-0.126 0.701,0.093 0.168,0.219 0.127,0.533 -0.092,0.701 -1.852,1.421 -4.388,1.336 -6.141,-0.049 0.308,2.206 1.206,4.225 2.529,5.894 0.017,0.003 0.033,0.004 0.051,0.008 1.032,0.276 2.109,0.134 3.035,-0.4 0.925,-0.534 1.587,-1.396 1.864,-2.429 0.059,-0.223 0.261,-0.37 0.482,-0.37 0.043,0 0.086,0.005 0.13,0.017 0.266,0.071 0.425,0.346 0.353,0.612 -0.345,1.29 -1.173,2.368 -2.329,3.036 -0.792,0.457 -1.672,0.678 -2.562,0.666 1.525,1.497 3.438,2.6 5.573,3.14 0.019,-0.01 0.036,-0.022 0.056,-0.03 2.038,-0.844 3.009,-3.189 2.165,-5.226 -0.106,-0.256 0.015,-0.548 0.27,-0.654 0.063,-0.026 0.128,-0.038 0.192,-0.038 0.196,0 0.382,0.116 0.462,0.309 0.893,2.156 0.156,4.583 -1.636,5.918 0.49,0.06 0.988,0.094 1.494,0.094 1.946,0 3.746,0.64 5.2,1.719 1.289,-1.57 1.202,-3.899 -0.264,-5.365 -0.195,-0.195 -0.195,-0.512 0,-0.707 0.098,-0.098 0.226,-0.147 0.354,-0.147 0.128,0 0.256,0.049 0.353,0.147 1.834,1.834 1.942,4.75 0.324,6.713 1.411,1.318 2.387,3.095 2.685,5.092 2.016,-0.205 3.594,-1.912 3.594,-3.98 0,-0.276 0.224,-0.5 0.5,-0.5 0.275,0 0.5,0.224 0.5,0.5 0,2.589 -1.979,4.725 -4.504,4.975 0.004,0.101 0.008,0.202 0.008,0.303 0,1.947 -0.641,3.748 -1.72,5.203 1.57,1.279 3.892,1.188 5.354,-0.274 0.195,-0.196 0.512,-0.196 0.707,0 0.195,0.195 0.195,0.511 0,0.707 -1.83,1.831 -4.74,1.941 -6.702,0.334 -1.324,1.416 -3.112,2.394 -5.119,2.687 0.214,2.006 1.915,3.573 3.977,3.573 0.276,0 0.5,0.225 0.5,0.5 0,0.277 -0.224,0.5 -0.5,0.5 -2.584,0 -4.716,-1.969 -4.974,-4.486 -0.09,0.003 -0.181,0.006 -0.273,0.006 -2.219,0 -4.38,-0.245 -6.461,-0.708 -0.275,1.97 0.955,3.887 2.923,4.414 0.267,0.072 0.426,0.346 0.354,0.613 -0.071,0.266 -0.346,0.426 -0.612,0.353 -2.494,-0.668 -4.042,-3.118 -3.644,-5.613 -2.217,-0.573 -4.333,-1.397 -6.319,-2.438 -0.351,0.82 -0.42,1.727 -0.186,2.601 0.276,1.032 0.939,1.895 1.864,2.429 0.239,0.138 0.321,0.444 0.182,0.683 -0.138,0.239 -0.443,0.321 -0.682,0.183 -1.157,-0.668 -1.984,-1.746 -2.33,-3.036 -0.301,-1.125 -0.204,-2.294 0.268,-3.341 -1.974,-1.121 -3.809,-2.462 -5.47,-3.989 -1.238,1.569 -1.136,3.856 0.311,5.303 0.195,0.195 0.195,0.512 0,0.707 -0.195,0.195 -0.512,0.195 -0.707,0 -1.831,-1.831 -1.941,-4.741 -0.332,-6.703 -1.611,-1.583 -3.043,-3.346 -4.262,-5.258 -0.718,0.535 -1.234,1.289 -1.47,2.167 -0.277,1.032 -0.135,2.11 0.4,3.035 0.138,0.24 0.056,0.545 -0.184,0.683 -0.238,0.139 -0.544,0.057 -0.682,-0.183 -0.668,-1.156 -0.845,-2.504 -0.5,-3.794 0.303,-1.128 0.973,-2.094 1.91,-2.766 -1.138,-1.926 -2.066,-3.99 -2.751,-6.161 -0.832,0.331 -1.524,0.924 -1.979,1.712 -0.534,0.924 -0.676,2.002 -0.399,3.035 0.071,0.266 -0.087,0.54 -0.354,0.612 -0.267,0.072 -0.541,-0.087 -0.612,-0.354 -0.346,-1.29 -0.169,-2.637 0.499,-3.793 0.584,-1.012 1.481,-1.771 2.559,-2.177 -0.596,-2.142 -0.957,-4.38 -1.055,-6.685 -1.984,0.234 -3.529,1.924 -3.529,3.969 0,0.277 -0.224,0.5 -0.5,0.5 -0.276,0 -0.5,-0.223 -0.5,-0.5 0,-2.589 1.978,-4.724 4.503,-4.974 -10e-4,-0.092 -0.003,-0.183 -0.003,-0.276 0,-2.216 0.246,-4.376 0.707,-6.456 -1.976,-0.286 -3.904,0.947 -4.433,2.922 -0.072,0.266 -0.346,0.426 -0.612,0.353 -0.267,-0.071 -0.426,-0.345 -0.354,-0.612 0.598,-2.231 2.624,-3.706 4.831,-3.706 0.265,0 0.532,0.023 0.8,0.067 0.573,-2.216 1.396,-4.332 2.435,-6.318 -0.823,-0.356 -1.736,-0.427 -2.616,-0.191 -1.032,0.276 -1.894,0.938 -2.429,1.863 -0.138,0.24 -0.443,0.322 -0.683,0.183 -0.239,-0.138 -0.321,-0.443 -0.183,-0.683 0.668,-1.156 1.746,-1.984 3.036,-2.329 0.431,-0.116 0.868,-0.173 1.303,-0.173 0.705,0 1.402,0.153 2.052,0.449 1.121,-1.975 2.46,-3.809 3.986,-5.471 -1.57,-1.246 -3.864,-1.146 -5.314,0.304 -0.195,0.195 -0.512,0.195 -0.707,0 -0.195,-0.196 -0.195,-0.512 0,-0.707 0.975,-0.976 2.255,-1.463 3.535,-1.463 1.129,0 2.258,0.381 3.177,1.138 1.582,-1.61 3.343,-3.043 5.254,-4.263 -0.535,-0.722 -1.29,-1.24 -2.172,-1.476 -1.032,-0.277 -2.11,-0.135 -3.035,0.399 -0.239,0.139 -0.545,0.057 -0.683,-0.183 -0.138,-0.239 -0.056,-0.545 0.183,-0.683 0.771,-0.445 1.626,-0.672 2.492,-0.672 0.434,0 0.871,0.057 1.302,0.173 1.131,0.303 2.099,0.976 2.77,1.917 1.931,-1.143 4,-2.074 6.177,-2.761 -0.74,-1.854 -2.771,-2.908 -4.746,-2.379 -0.267,0.073 -0.541,-0.086 -0.612,-0.353 -0.072,-0.267 0.086,-0.541 0.353,-0.613 0.432,-0.115 0.866,-0.171 1.293,-0.171 2.046,0 3.933,1.269 4.675,3.231 2.136,-0.595 4.369,-0.956 6.668,-1.055 -0.232,-1.986 -1.923,-3.533 -3.97,-3.533 -0.276,0 -0.5,-0.224 -0.5,-0.5 0,-0.276 0.224,-0.5 0.5,-0.5 2.59,0 4.726,1.98 4.975,4.506 0.098,-0.001 0.196,-0.003 0.295,-0.003 1.947,0 3.748,0.64 5.203,1.72 1.286,-1.57 1.197,-3.897 -0.267,-5.361 -0.195,-0.195 -0.195,-0.512 0,-0.707 0.098,-0.098 0.226,-0.147 0.354,-0.147 0.128,0 0.256,0.049 0.353,0.147 1.833,1.833 1.942,4.747 0.328,6.709 1.129,1.057 1.978,2.408 2.424,3.93 C -3.49,0.027 -1.864,-1 0,-1 5.928,-1 10.75,-5.822 10.75,-11.75 l 0,-8.25 0,-2.721 0,-1.338 c 0,-0.276 0.224,-0.5 0.5,-0.5 0.276,0 0.5,0.224 0.5,0.5 l 0,1.338 0,2.721 0,9.279 C 11.227,-4.722 6.132,0 0,0"
                 style="fill:#e2001a;fill-opacity:1;fill-rule:nonzero;stroke:none"
                 id="path22-4"
                 inkscape:connector-curvature="0" /></g></g></g></g></g></g><g
     inkscape:groupmode="layer"
     id="layer3"
     inkscape:label="object" /></svg>