<?xml version="1.0" encoding="UTF-8" standalone="no"?>
<svg
   xmlns:osb="http://www.openswatchbook.org/uri/2009/osb"
   xmlns:dc="http://purl.org/dc/elements/1.1/"
   xmlns:cc="http://creativecommons.org/ns#"
   xmlns:rdf="http://www.w3.org/1999/02/22-rdf-syntax-ns#"
   xmlns:svg="http://www.w3.org/2000/svg"
   xmlns="http://www.w3.org/2000/svg"
   xmlns:sodipodi="http://sodipodi.sourceforge.net/DTD/sodipodi-0.dtd"
   xmlns:inkscape="http://www.inkscape.org/namespaces/inkscape"
   viewBox="0 0 140 140"
   height="140"
   width="140"
   xml:space="preserve"
   version="1.1"
   id="svg2"
   inkscape:version="0.91 r13725"
   sodipodi:docname="Ebola.svg"><sodipodi:namedview
     pagecolor="#ffffff"
     bordercolor="#666666"
     borderopacity="1"
     objecttolerance="10"
     gridtolerance="10"
     guidetolerance="10"
     inkscape:pageopacity="0"
     inkscape:pageshadow="2"
     inkscape:window-width="1366"
     inkscape:window-height="705"
     id="namedview22"
     showgrid="false"
     inkscape:zoom="3.3714286"
     inkscape:cx="4.323307"
     inkscape:cy="80.923666"
     inkscape:window-x="1020"
     inkscape:window-y="-4"
     inkscape:window-maximized="1"
     inkscape:current-layer="layer2" /><metadata
     id="metadata8"><rdf:RDF><cc:Work
         rdf:about=""><dc:format>image/svg+xml</dc:format><dc:type
           rdf:resource="http://purl.org/dc/dcmitype/StillImage" /><dc:title /></cc:Work></rdf:RDF></metadata><defs
     id="defs6"><linearGradient
       id="linearGradient4153"
       osb:paint="solid"><stop
         style="stop-color:#e2001a;stop-opacity:1;"
         offset="0"
         id="stop4155" /></linearGradient><clipPath
       id="clipPath16"
       clipPathUnits="userSpaceOnUse"><path
         id="path18"
         d="M 0,112 112,112 112,0 0,0 0,112 Z" /></clipPath><clipPath
       id="clipPath16-6"
       clipPathUnits="userSpaceOnUse"><path
         inkscape:connector-curvature="0"
         id="path18-0"
         d="M 0,112 112,112 112,0 0,0 0,112 Z" /></clipPath><clipPath
       id="clipPath16-2"
       clipPathUnits="userSpaceOnUse"><path
         inkscape:connector-curvature="0"
         id="path18-3"
         d="M 0,112 112,112 112,0 0,0 0,112 Z" /></clipPath><clipPath
       id="clipPath16-9"
       clipPathUnits="userSpaceOnUse"><path
         inkscape:connector-curvature="0"
         id="path18-02"
         d="M 0,112 112,112 112,0 0,0 0,112 Z" /></clipPath><clipPath
       id="clipPath16-1"
       clipPathUnits="userSpaceOnUse"><path
         inkscape:connector-curvature="0"
         id="path18-9"
         d="M 0,112 112,112 112,0 0,0 0,112 Z" /></clipPath><clipPath
       id="clipPath16-8"
       clipPathUnits="userSpaceOnUse"><path
         inkscape:connector-curvature="0"
         id="path18-32"
         d="M 0,112 112,112 112,0 0,0 0,112 Z" /></clipPath><clipPath
       id="clipPath16-5"
       clipPathUnits="userSpaceOnUse"><path
         inkscape:connector-curvature="0"
         id="path18-5"
         d="M 0,112 112,112 112,0 0,0 0,112 Z" /></clipPath><clipPath
       id="clipPath16-28"
       clipPathUnits="userSpaceOnUse"><path
         inkscape:connector-curvature="0"
         id="path18-97"
         d="M 0,112 112,112 112,0 0,0 0,112 Z" /></clipPath><clipPath
       id="clipPath16-4"
       clipPathUnits="userSpaceOnUse"><path
         inkscape:connector-curvature="0"
         id="path18-2"
         d="M 0,112 112,112 112,0 0,0 0,112 Z" /></clipPath><clipPath
       id="clipPath16-7"
       clipPathUnits="userSpaceOnUse"><path
         inkscape:connector-curvature="0"
         id="path18-4"
         d="M 0,112 112,112 112,0 0,0 0,112 Z" /></clipPath><clipPath
       id="clipPath16-96"
       clipPathUnits="userSpaceOnUse"><path
         inkscape:connector-curvature="0"
         id="path18-45"
         d="M 0,112 112,112 112,0 0,0 0,112 Z" /></clipPath><clipPath
       id="clipPath16-99"
       clipPathUnits="userSpaceOnUse"><path
         inkscape:connector-curvature="0"
         id="path18-6"
         d="M 0,112 112,112 112,0 0,0 0,112 Z" /></clipPath><clipPath
       id="clipPath16-51"
       clipPathUnits="userSpaceOnUse"><path
         inkscape:connector-curvature="0"
         id="path18-48"
         d="M 0,112 112,112 112,0 0,0 0,112 Z" /></clipPath><clipPath
       id="clipPath16-43"
       clipPathUnits="userSpaceOnUse"><path
         inkscape:connector-curvature="0"
         id="path18-55"
         d="M 0,112 112,112 112,0 0,0 0,112 Z" /></clipPath><clipPath
       id="clipPath16-92"
       clipPathUnits="userSpaceOnUse"><path
         inkscape:connector-curvature="0"
         id="path18-22"
         d="M 0,112 112,112 112,0 0,0 0,112 Z" /></clipPath><clipPath
       id="clipPath16-22"
       clipPathUnits="userSpaceOnUse"><path
         inkscape:connector-curvature="0"
         id="path18-57"
         d="M 0,112 112,112 112,0 0,0 0,112 Z" /></clipPath><clipPath
       id="clipPath16-82"
       clipPathUnits="userSpaceOnUse"><path
         inkscape:connector-curvature="0"
         id="path18-33"
         d="M 0,112 112,112 112,0 0,0 0,112 Z" /></clipPath><clipPath
       id="clipPath16-54"
       clipPathUnits="userSpaceOnUse"><path
         inkscape:connector-curvature="0"
         id="path18-7"
         d="M 0,112 112,112 112,0 0,0 0,112 Z" /></clipPath><clipPath
       id="clipPath16-14"
       clipPathUnits="userSpaceOnUse"><path
         inkscape:connector-curvature="0"
         id="path18-24"
         d="M 0,112 112,112 112,0 0,0 0,112 Z" /></clipPath><clipPath
       id="clipPath16-97"
       clipPathUnits="userSpaceOnUse"><path
         inkscape:connector-curvature="0"
         id="path18-8"
         d="M 0,112 112,112 112,0 0,0 0,112 Z" /></clipPath><clipPath
       id="clipPath24"
       clipPathUnits="userSpaceOnUse"><path
         inkscape:connector-curvature="0"
         id="path26"
         d="M 0,112 112,112 112,0 0,0 0,112 Z" /></clipPath><clipPath
       id="clipPath16-26"
       clipPathUnits="userSpaceOnUse"><path
         inkscape:connector-curvature="0"
         id="path18-78"
         d="M 0,112 112,112 112,0 0,0 0,112 Z" /></clipPath><clipPath
       id="clipPath16-78"
       clipPathUnits="userSpaceOnUse"><path
         inkscape:connector-curvature="0"
         id="path18-027"
         d="M 0,112 112,112 112,0 0,0 0,112 Z" /></clipPath><clipPath
       id="clipPath16-283"
       clipPathUnits="userSpaceOnUse"><path
         inkscape:connector-curvature="0"
         id="path18-36"
         d="M 0,112 112,112 112,0 0,0 0,112 Z" /></clipPath><clipPath
       id="clipPath16-821"
       clipPathUnits="userSpaceOnUse"><path
         inkscape:connector-curvature="0"
         id="path18-80"
         d="M 0,112 112,112 112,0 0,0 0,112 Z" /></clipPath><clipPath
       id="clipPath16-73"
       clipPathUnits="userSpaceOnUse"><path
         inkscape:connector-curvature="0"
         id="path18-1"
         d="M 0,112 112,112 112,0 0,0 0,112 Z" /></clipPath><clipPath
       id="clipPath20"
       clipPathUnits="userSpaceOnUse"><path
         inkscape:connector-curvature="0"
         id="path22"
         d="M 0,112 112,112 112,0 0,0 0,112 Z" /></clipPath><clipPath
       id="clipPath16-93"
       clipPathUnits="userSpaceOnUse"><path
         inkscape:connector-curvature="0"
         id="path18-58"
         d="M 0,112 112,112 112,0 0,0 0,112 Z" /></clipPath><clipPath
       id="clipPath16-76"
       clipPathUnits="userSpaceOnUse"><path
         inkscape:connector-curvature="0"
         id="path18-93"
         d="M 0,112 112,112 112,0 0,0 0,112 Z" /></clipPath><clipPath
       id="clipPath16-50"
       clipPathUnits="userSpaceOnUse"><path
         inkscape:connector-curvature="0"
         id="path18-26"
         d="M 0,112 112,112 112,0 0,0 0,112 Z" /></clipPath><clipPath
       id="clipPath22"
       clipPathUnits="userSpaceOnUse"><path
         inkscape:connector-curvature="0"
         id="path24"
         d="M 0,112 112,112 112,0 0,0 0,112 Z" /></clipPath><clipPath
       id="clipPath16-74"
       clipPathUnits="userSpaceOnUse"><path
         inkscape:connector-curvature="0"
         id="path18-62"
         d="M 0,112 112,112 112,0 0,0 0,112 Z" /></clipPath><clipPath
       id="clipPath16-15"
       clipPathUnits="userSpaceOnUse"><path
         inkscape:connector-curvature="0"
         id="path18-75"
         d="M 0,112 112,112 112,0 0,0 0,112 Z" /></clipPath><clipPath
       id="clipPath16-978"
       clipPathUnits="userSpaceOnUse"><path
         inkscape:connector-curvature="0"
         id="path18-79"
         d="M 0,112 112,112 112,0 0,0 0,112 Z" /></clipPath><clipPath
       id="clipPath16-47"
       clipPathUnits="userSpaceOnUse"><path
         inkscape:connector-curvature="0"
         id="path18-96"
         d="M 0,112 112,112 112,0 0,0 0,112 Z" /></clipPath><clipPath
       id="clipPath16-0"
       clipPathUnits="userSpaceOnUse"><path
         inkscape:connector-curvature="0"
         id="path18-38"
         d="M 0,112 112,112 112,0 0,0 0,112 Z" /></clipPath></defs><g
     inkscape:groupmode="layer"
     id="layer2"
     inkscape:label="circle"><g
       id="g4214"><ellipse
         style="fill:#ffffff;fill-opacity:1;stroke:#e2001a;stroke-width:6.10551453;stroke-miterlimit:4;stroke-dasharray:none;stroke-opacity:1"
         id="path4149"
         cx="69.851715"
         cy="69.703392"
         rx="66.629448"
         ry="66.184532" /><g
         style="fill:#e2001a;fill-opacity:1"
         id="g10"
         transform="matrix(1.25,0,0,-1.25,-4.4714177,144.11067)"><g
           style="fill:#e2001a;fill-opacity:1"
           id="g12"><g
             style="fill:#e2001a;fill-opacity:1"
             id="g14"
             clip-path="url(#clipPath16-0)"><g
               style="fill:#e2001a;fill-opacity:1"
               id="g20"
               transform="translate(63.8906,45.7344)"><path
                 d="m 0,0 c -1.764,-1.453 -3.994,-2.254 -6.281,-2.254 -2.618,0 -5.094,1.019 -6.935,2.823 L 1.962,13.081 C 4.713,8.919 3.929,3.239 0,0 m -35.407,2.666 c 0.115,1.207 0.693,2.294 1.625,3.063 0.808,0.666 1.83,1.032 2.878,1.032 1.362,0 2.639,-0.6 3.502,-1.646 l 2.881,-3.497 -3.496,-2.882 c -0.808,-0.666 -1.829,-1.032 -2.877,-1.032 -1.363,0 -2.639,0.601 -3.502,1.647 -0.769,0.931 -1.127,2.109 -1.011,3.315 m 14.896,9.773 c 2.863,0 5.662,0.992 7.927,2.827 2.022,1.667 4.686,2.465 7.289,2.201 l -13.053,-10.76 -3.012,3.654 c -0.051,0.062 -0.104,0.118 -0.165,0.182 -0.964,1.089 -2.102,1.988 -3.354,2.674 1.379,-0.51 2.854,-0.778 4.368,-0.778 m 55.298,21.829 c -2.387,2.895 -5.915,4.556 -9.68,4.556 -2.898,0 -5.725,-1.015 -7.96,-2.858 L 2.003,23.482 c -2.554,1.332 -5.411,2.033 -8.31,2.033 -4.102,0 -8.111,-1.426 -11.33,-4.048 -0.808,-0.665 -1.83,-1.032 -2.878,-1.032 -1.362,0 -2.638,0.6 -3.501,1.646 -1.588,1.929 -1.313,4.79 0.615,6.379 0.715,0.59 1.579,0.943 2.498,1.019 1.065,0.09 2.03,0.588 2.72,1.404 0.69,0.816 1.021,1.852 0.932,2.915 -0.18,2.168 -2.105,3.83 -4.32,3.654 -2.548,-0.213 -4.94,-1.188 -6.919,-2.819 -5.331,-4.395 -6.093,-12.308 -1.698,-17.64 1.026,-1.245 2.264,-2.263 3.642,-3.017 -1.383,0.512 -2.86,0.782 -4.367,0.782 -2.898,0 -5.723,-1.014 -7.958,-2.856 -5.331,-4.395 -6.093,-12.309 -1.697,-17.64 2.385,-2.895 5.911,-4.554 9.674,-4.554 2.769,0 5.393,0.886 7.543,2.528 0.086,0.059 0.173,0.121 0.253,0.188 l 3.692,3.044 c 3.38,-3.644 8.121,-5.718 13.135,-5.718 4.135,0 8.17,1.448 11.359,4.077 7.334,6.045 8.611,16.777 3.066,24.359 l 14.081,11.607 c 0.808,0.666 1.83,1.033 2.877,1.033 1.363,0 2.639,-0.6 3.502,-1.647 0.769,-0.932 1.128,-2.11 1.012,-3.316 C 29.51,24.657 28.933,23.569 28,22.8 c -1.702,-1.403 -1.945,-3.928 -0.542,-5.631 0.762,-0.924 1.888,-1.455 3.088,-1.455 0.926,0 1.828,0.325 2.543,0.914 2.579,2.126 4.177,5.134 4.498,8.469 0.32,3.335 -0.674,6.592 -2.8,9.171"
                 style="fill:#e2001a;fill-opacity:1;fill-rule:nonzero;stroke:none"
                 id="path22-2"
                 inkscape:connector-curvature="0" /></g></g></g></g></g></g><g
     inkscape:groupmode="layer"
     id="layer3"
     inkscape:label="object" /></svg>