<?xml version="1.0" encoding="UTF-8" standalone="no"?>
<svg
   xmlns:osb="http://www.openswatchbook.org/uri/2009/osb"
   xmlns:dc="http://purl.org/dc/elements/1.1/"
   xmlns:cc="http://creativecommons.org/ns#"
   xmlns:rdf="http://www.w3.org/1999/02/22-rdf-syntax-ns#"
   xmlns:svg="http://www.w3.org/2000/svg"
   xmlns="http://www.w3.org/2000/svg"
   xmlns:sodipodi="http://sodipodi.sourceforge.net/DTD/sodipodi-0.dtd"
   xmlns:inkscape="http://www.inkscape.org/namespaces/inkscape"
   viewBox="0 0 140 140"
   height="140"
   width="140"
   xml:space="preserve"
   version="1.1"
   id="svg2"
   inkscape:version="0.91 r13725"
   sodipodi:docname="Measles_2.svg"><sodipodi:namedview
     pagecolor="#ffffff"
     bordercolor="#666666"
     borderopacity="1"
     objecttolerance="10"
     gridtolerance="10"
     guidetolerance="10"
     inkscape:pageopacity="0"
     inkscape:pageshadow="2"
     inkscape:window-width="1366"
     inkscape:window-height="705"
     id="namedview22"
     showgrid="false"
     inkscape:zoom="3.3714286"
     inkscape:cx="50.594493"
     inkscape:cy="55.580761"
     inkscape:window-x="-4"
     inkscape:window-y="-4"
     inkscape:window-maximized="1"
     inkscape:current-layer="layer3" /><metadata
     id="metadata8"><rdf:RDF><cc:Work
         rdf:about=""><dc:format>image/svg+xml</dc:format><dc:type
           rdf:resource="http://purl.org/dc/dcmitype/StillImage" /><dc:title></dc:title></cc:Work></rdf:RDF></metadata><defs
     id="defs6"><linearGradient
       id="linearGradient4153"
       osb:paint="solid"><stop
         style="stop-color:#e2001a;stop-opacity:1;"
         offset="0"
         id="stop4155" /></linearGradient><clipPath
       id="clipPath16"
       clipPathUnits="userSpaceOnUse"><path
         id="path18"
         d="M 0,112 112,112 112,0 0,0 0,112 Z" /></clipPath><clipPath
       id="clipPath16-3"
       clipPathUnits="userSpaceOnUse"><path
         inkscape:connector-curvature="0"
         id="path18-0"
         d="M 0,112 112,112 112,0 0,0 0,112 Z" /></clipPath><clipPath
       id="clipPath16-9"
       clipPathUnits="userSpaceOnUse"><path
         inkscape:connector-curvature="0"
         id="path18-8"
         d="M 0,112 112,112 112,0 0,0 0,112 Z" /></clipPath><clipPath
       id="clipPath20"
       clipPathUnits="userSpaceOnUse"><path
         inkscape:connector-curvature="0"
         id="path22"
         d="M 0,112 112,112 112,0 0,0 0,112 Z" /></clipPath><clipPath
       id="clipPath16-5"
       clipPathUnits="userSpaceOnUse"><path
         inkscape:connector-curvature="0"
         id="path18-2"
         d="M 0,112 112,112 112,0 0,0 0,112 Z" /></clipPath><clipPath
       id="clipPath16-8"
       clipPathUnits="userSpaceOnUse"><path
         inkscape:connector-curvature="0"
         id="path18-6"
         d="M 0,112 112,112 112,0 0,0 0,112 Z" /></clipPath></defs><g
     inkscape:groupmode="layer"
     id="layer2"
     inkscape:label="circle"><ellipse
       ry="66.184532"
       rx="66.629448"
       cy="69.703392"
       cx="69.851715"
       id="path4149"
       style="fill:#ffffff;fill-opacity:1;stroke:#e2001a;stroke-width:6.10551453;stroke-miterlimit:4;stroke-dasharray:none;stroke-opacity:1" /></g><g
     inkscape:groupmode="layer"
     id="layer3"
     inkscape:label="object"><g
       transform="matrix(1.0522393,0,0,-0.92245882,10.481379,124.03058)"
       id="g10"
       style="fill:#e2001a;fill-opacity:1"><g
         id="g12"
         style="fill:#e2001a;fill-opacity:1"><g
           clip-path="url(#clipPath16-8)"
           id="g14"
           style="fill:#e2001a;fill-opacity:1"><g
             transform="translate(90,48.5)"
             id="g20"
             style="fill:#e2001a;fill-opacity:1"><path
               inkscape:connector-curvature="0"
               id="path22-8"
               style="fill:#e2001a;fill-opacity:1;fill-rule:nonzero;stroke:none"
               d="M 0,0 C -2.484,0 -4.5,2.016 -4.5,4.5 -4.5,6.987 -2.484,9 0,9 2.484,9 4.5,6.986 4.5,4.5 4.5,2.014 2.484,0 0,0 m -11.5,22.5 c -2.484,0 -4.5,2.013 -4.5,4.5 0,2.486 2.016,4.5 4.5,4.5 2.484,0 4.5,-2.014 4.5,-4.5 0,-2.487 -2.016,-4.5 -4.5,-4.5 m -0.842,-42.013 c -0.01,-0.547 -0.458,-0.987 -1,-0.987 l -0.009,0 c -0.56,0.01 -1.001,0.466 -0.991,1.018 l 0.003,0.326 C -14.339,-8.32 -23.159,0.5 -34,0.5 c -10.841,0 -19.661,-8.82 -19.661,-19.661 l 0.002,-0.325 c 0.01,-0.547 -0.431,-1.003 -0.982,-1.013 -0.588,0.033 -1.008,0.455 -1.018,0.982 l -0.002,0.352 c 0,11.948 9.717,21.665 21.661,21.665 11.944,0 21.661,-9.717 21.661,-21.661 l -0.003,-0.352 z M -27.5,-31.5 c -2.484,0 -4.499,2.016 -4.499,4.5 -0.001,2.484 2.015,4.5 4.5,4.5 2.484,0 4.499,-2.016 4.499,-4.5 0,-2.484 -2.015,-4.5 -4.5,-4.5 M -63,5 c 0,2.484 2.016,4.5 4.5,4.5 2.484,0 4.5,-2.016 4.5,-4.5 0,-2.484 -2.016,-4.5 -4.5,-4.5 -2.484,0 -4.5,2.016 -4.5,4.5 m -6.5,8.5 c -2.484,0 -4.5,2.014 -4.5,4.5 0,2.487 2.016,4.5 4.5,4.5 2.484,0 4.5,-2.013 4.5,-4.5 0,-2.486 -2.016,-4.5 -4.5,-4.5 M -30,45 c 2.484,10e-4 4.5,-2.014 4.5,-4.5 0,-2.486 -2.016,-4.499 -4.5,-4.5 -2.484,10e-4 -4.5,2.014 -4.5,4.5 0,2.486 2.016,4.501 4.5,4.5 m 11.5,-31.5 c 2.484,0 4.5,-2.016 4.5,-4.5 0,-2.484 -2.016,-4.5 -4.5,-4.5 -2.484,0 -4.5,2.016 -4.5,4.5 0,2.484 2.016,4.5 4.5,4.5 M -34,55.495 c -26.464,0 -47.995,-21.531 -47.995,-47.995 0,-26.465 21.531,-47.995 47.995,-47.995 26.465,0 47.995,21.53 47.995,47.995 0,26.464 -21.53,47.995 -47.995,47.995" /></g></g></g></g></g></svg>