<?xml version="1.0" encoding="iso-8859-1"?>
<!-- Generator: Adobe Illustrator 15.0.0, SVG Export Plug-In . SVG Version: 6.00 Build 0)  -->
<!DOCTYPE svg PUBLIC "-//W3C//DTD SVG 1.1//EN" "http://www.w3.org/Graphics/SVG/1.1/DTD/svg11.dtd">
<svg version="1.1" id="Layer_1" xmlns="http://www.w3.org/2000/svg" xmlns:xlink="http://www.w3.org/1999/xlink" x="0px" y="0px"
	 width="43.768px" height="43.764px" viewBox="0 0 43.768 43.764" style="enable-background:new 0 0 43.768 43.764;"
	 xml:space="preserve">
<g id="Layer_54">
	<g>
		<path style="fill:#706F6F;" d="M38.906,0H4.863C2.165,0,0,2.186,0,4.863v34.043c0,2.672,2.165,4.858,4.862,4.858h34.043
			c2.696,0,4.861-2.188,4.861-4.858V4.863C43.768,2.185,41.603,0,38.906,0z M34.648,21.882c0,0.556-0.048,1.117-0.121,1.656
			l3.598,2.818c0.317,0.268,0.418,0.729,0.193,1.094l-3.401,5.885c-0.22,0.367-0.656,0.51-1.046,0.367l-4.23-1.703
			c-0.877,0.68-1.85,1.24-2.87,1.674l-0.631,4.5c-0.073,0.414-0.437,0.732-0.852,0.732H18.48c-0.415,0-0.777-0.318-0.852-0.707
			l-0.632-4.496c-1.045-0.438-1.995-0.998-2.869-1.682l-4.231,1.702c-0.389,0.146-0.824,0-1.045-0.362l-3.404-5.885
			c-0.218-0.371-0.118-0.83,0.196-1.095L9.24,23.56c-0.073-0.562-0.121-1.123-0.121-1.679c0-0.557,0.048-1.119,0.121-1.658
			L5.643,17.41c-0.314-0.273-0.414-0.732-0.196-1.096l3.404-5.888c0.221-0.365,0.656-0.51,1.045-0.365l4.231,1.706
			c0.874-0.684,1.85-1.24,2.869-1.682l0.632-4.499c0.073-0.414,0.437-0.727,0.852-0.727h6.808c0.415,0,0.777,0.313,0.852,0.705
			l0.631,4.495c1.046,0.437,1.993,0.998,2.87,1.684l4.23-1.706c0.39-0.146,0.826,0,1.046,0.367l3.401,5.883
			c0.225,0.367,0.124,0.828-0.193,1.09l-3.598,2.826C34.601,20.762,34.648,21.325,34.648,21.882z"/>
		<path style="fill:#706F6F;" d="M21.882,17.021c-2.675,0-4.862,2.184-4.862,4.86c0,2.681,2.188,4.865,4.862,4.865
			c2.679,0,4.866-2.186,4.866-4.865C26.748,19.204,24.561,17.021,21.882,17.021z"/>
	</g>
</g>
<g id="Layer_1_1_">
</g>
</svg>
