<?xml version="1.0" encoding="iso-8859-1"?>
<!-- Generator: Adobe Illustrator 15.0.0, SVG Export Plug-In . SVG Version: 6.00 Build 0)  -->
<!DOCTYPE svg PUBLIC "-//W3C//DTD SVG 1.1//EN" "http://www.w3.org/Graphics/SVG/1.1/DTD/svg11.dtd">
<svg version="1.1" xmlns="http://www.w3.org/2000/svg" xmlns:xlink="http://www.w3.org/1999/xlink" x="0px" y="0px"
	 width="48.195px" height="48.193px" viewBox="0 0 48.195 48.193" style="enable-background:new 0 0 48.195 48.193;"
	 xml:space="preserve">
<g id="_x34_2">
	<path style="fill:#706F6F;" d="M24.095,0C10.793,0,0,10.795,0,24.097s10.793,24.097,24.095,24.097s24.101-10.795,24.101-24.097
		S37.396,0,24.095,0z M33.733,26.508h-7.226v7.227c0,1.326-1.087,2.41-2.413,2.41c-1.323,0-2.407-1.084-2.407-2.41v-7.227h-7.228
		c-1.327,0-2.414-1.086-2.414-2.411c0-1.325,1.087-2.41,2.414-2.41h7.228v-7.229c0-1.325,1.084-2.412,2.407-2.412
		c1.326,0,2.413,1.087,2.413,2.412v7.229h7.226c1.329,0,2.413,1.085,2.413,2.41C36.146,25.422,35.063,26.508,33.733,26.508z"/>
</g>
<g id="Layer_1">
</g>
</svg>
