<?xml version="1.0" encoding="iso-8859-1"?>
<!-- Generator: Adobe Illustrator 15.0.0, SVG Export Plug-In . SVG Version: 6.00 Build 0)  -->
<!DOCTYPE svg PUBLIC "-//W3C//DTD SVG 1.1//EN" "http://www.w3.org/Graphics/SVG/1.1/DTD/svg11.dtd">
<svg version="1.1" xmlns="http://www.w3.org/2000/svg" xmlns:xlink="http://www.w3.org/1999/xlink" x="0px" y="0px"
	 width="47.645px" height="47.647px" viewBox="0 0 47.645 47.647" style="enable-background:new 0 0 47.645 47.647;"
	 xml:space="preserve">
<g id="_x34_1">
	<path style="fill:#706F6F;" d="M23.823,0C10.671,0,0,10.671,0,23.826c0,13.149,10.671,23.822,23.823,23.822
		c13.149,0,23.821-10.673,23.821-23.822C47.645,10.671,36.973,0,23.823,0z M38.806,17.397L20.728,35.479
		c-0.909,0.928-2.43,0.928-3.364,0l-8.548-8.553c-0.931-0.93-0.931-2.429,0-3.359c0.928-0.929,2.43-0.929,3.357,0l6.884,6.861
		l16.395-16.391c0.928-0.931,2.427-0.931,3.354,0C39.74,14.965,39.74,16.466,38.806,17.397z"/>
</g>
<g id="Layer_1">
</g>
</svg>
