<?xml version="1.0" encoding="iso-8859-1"?>
<!-- Generator: Adobe Illustrator 15.0.0, SVG Export Plug-In . SVG Version: 6.00 Build 0)  -->
<!DOCTYPE svg PUBLIC "-//W3C//DTD SVG 1.1//EN" "http://www.w3.org/Graphics/SVG/1.1/DTD/svg11.dtd">
<svg version="1.1" xmlns="http://www.w3.org/2000/svg" xmlns:xlink="http://www.w3.org/1999/xlink" x="0px" y="0px"
	 width="37.301px" height="41.283px" viewBox="0 0 37.301 41.283" style="enable-background:new 0 0 37.301 41.283;"
	 xml:space="preserve">
<g id="_x38_7">
	<path style="fill:#706F6F;" d="M31.087,29.18c-1.575,0-2.987,0.619-4.062,1.595l-14.779-8.599c0.105-0.473,0.188-0.951,0.188-1.451
		c0-0.498-0.083-0.973-0.188-1.451l14.616-8.516c1.112,1.033,2.586,1.677,4.225,1.677c3.44,0,6.214-2.774,6.214-6.217
		C37.301,2.78,34.527,0,31.087,0c-3.443,0-6.22,2.78-6.22,6.217c0,0.503,0.086,0.976,0.188,1.454l-14.606,8.517
		c-1.123-1.033-2.589-1.681-4.231-1.681C2.777,14.507,0,17.284,0,20.725c0,3.437,2.777,6.217,6.217,6.217
		c1.642,0,3.109-0.65,4.231-1.677l14.749,8.615c-0.098,0.439-0.162,0.893-0.162,1.352c0,3.329,2.713,6.052,6.052,6.052
		c3.335,0,6.048-2.723,6.048-6.052C37.135,31.896,34.422,29.18,31.087,29.18"/>
</g>
<g id="Layer_1">
</g>
</svg>
