<?xml version="1.0" encoding="iso-8859-1"?>
<!-- Generator: Adobe Illustrator 15.0.0, SVG Export Plug-In . SVG Version: 6.00 Build 0)  -->
<!DOCTYPE svg PUBLIC "-//W3C//DTD SVG 1.1//EN" "http://www.w3.org/Graphics/SVG/1.1/DTD/svg11.dtd">
<svg version="1.1" xmlns="http://www.w3.org/2000/svg" xmlns:xlink="http://www.w3.org/1999/xlink" x="0px" y="0px"
	 width="40.269px" height="39.473px" viewBox="0 0 40.269 39.473" style="enable-background:new 0 0 40.269 39.473;"
	 xml:space="preserve">
<g id="_x35_5">
	<path style="fill:#706F6F;" d="M38.725,2.449c-0.529,0-1,0.274-1.275,0.682l-3.238,3.246C30.537,2.404,25.359,0,19.736,0
		C8.854,0,0,8.857,0,19.736c0,10.885,8.854,19.736,19.736,19.736c8.193,0,15.411-4.93,18.39-12.563
		c0.497-1.256-0.128-2.678-1.391-3.169c-1.249-0.485-2.679,0.134-3.169,1.39c-2.238,5.739-7.672,9.444-13.83,9.444
		c-8.181,0-14.839-6.657-14.839-14.839S11.555,4.897,19.736,4.897c4.297,0,8.25,1.855,11.018,4.936l-3.801,3.794
		c-0.439,0.44-0.573,1.104-0.331,1.677c0.235,0.581,0.797,0.95,1.422,0.95h10.681c0.855,0,1.544-0.688,1.544-1.537V4.03
		c-0.007-0.013-0.007-0.032,0-0.039C40.269,3.137,39.58,2.449,38.725,2.449z"/>
</g>
<g id="Layer_1">
</g>
</svg>
