<?xml version="1.0" encoding="iso-8859-1"?>
<!-- Generator: Adobe Illustrator 15.0.0, SVG Export Plug-In . SVG Version: 6.00 Build 0)  -->
<!DOCTYPE svg PUBLIC "-//W3C//DTD SVG 1.1//EN" "http://www.w3.org/Graphics/SVG/1.1/DTD/svg11.dtd">
<svg version="1.1" xmlns="http://www.w3.org/2000/svg" xmlns:xlink="http://www.w3.org/1999/xlink" x="0px" y="0px"
	 width="40.383px" height="40.381px" viewBox="0 0 40.383 40.381" style="enable-background:new 0 0 40.383 40.381;"
	 xml:space="preserve">
<g id="Layer_64">
	<path style="fill:#706F6F;" d="M4.486,40.381h31.41c2.465,0,4.486-2.017,4.486-4.486V7.85c0-1.074-0.383-2.083-1.033-2.844
		L36.23,1.235C35.629,0.47,34.703,0,33.65,0H6.729C5.674,0,4.754,0.47,4.123,1.235L1.031,5.006C0.373,5.767,0,6.775,0,7.85v28.045
		C0,38.364,2.016,40.381,4.486,40.381z M20.188,32.531L7.852,20.19h7.852v-4.484h8.977v4.484h7.85L20.188,32.531z M6.572,2.245
		h26.924L35.6,4.487H4.754L6.572,2.245z"/>
</g>
<g id="Layer_1">
</g>
</svg>
