<?xml version="1.0" encoding="iso-8859-1"?>
<!-- Generator: Adobe Illustrator 15.0.0, SVG Export Plug-In . SVG Version: 6.00 Build 0)  -->
<!DOCTYPE svg PUBLIC "-//W3C//DTD SVG 1.1//EN" "http://www.w3.org/Graphics/SVG/1.1/DTD/svg11.dtd">
<svg version="1.1" xmlns="http://www.w3.org/2000/svg" xmlns:xlink="http://www.w3.org/1999/xlink" x="0px" y="0px"
	 width="33.342px" height="48.617px" viewBox="0 0 33.342 48.617" style="enable-background:new 0 0 33.342 48.617;"
	 xml:space="preserve">
<g id="_x31_">
	<path style="fill:#706F6F;" d="M16.676,0C7.468,0,0,7.257,0,16.207c0,2.952,0.82,5.717,2.242,8.102L16.67,48.617l14.434-24.309
		c1.422-2.385,2.238-5.149,2.238-8.102C33.342,7.257,25.877,0,16.676,0z M16.813,28.609c-7.084,0-12.833-5.579-12.833-12.466
		c0-6.877,5.749-12.46,12.833-12.46c7.082,0,12.814,5.583,12.814,12.46C29.627,23.03,23.895,28.609,16.813,28.609z"/>
	<path style="fill:#706F6F;" d="M16.663,11.293c1.081,0,1.961-0.876,1.961-1.958c0-1.078-0.88-1.955-1.961-1.955
		c-1.075,0-1.954,0.877-1.954,1.955C14.709,10.417,15.588,11.293,16.663,11.293z"/>
	<path style="fill:#706F6F;" d="M16.67,12.617c-1.082,0-1.958,0.963-1.958,2.143v6.702c0,1.18,0.876,2.139,1.958,2.139
		c1.077,0,1.954-0.959,1.954-2.139v-6.702C18.624,13.58,17.747,12.617,16.67,12.617z"/>
</g>
<g id="Layer_1">
</g>
</svg>
