<?xml version="1.0" encoding="iso-8859-1"?>
<!-- Generator: Adobe Illustrator 15.0.0, SVG Export Plug-In . SVG Version: 6.00 Build 0)  -->
<!DOCTYPE svg PUBLIC "-//W3C//DTD SVG 1.1//EN" "http://www.w3.org/Graphics/SVG/1.1/DTD/svg11.dtd">
<svg version="1.1" xmlns="http://www.w3.org/2000/svg" xmlns:xlink="http://www.w3.org/1999/xlink" x="0px" y="0px"
	 width="46.289px" height="43.168px" viewBox="0 0 46.289 43.168" style="enable-background:new 0 0 46.289 43.168;"
	 xml:space="preserve">
<g id="_x31_8">
	<path style="fill:#706F6F;" d="M33.794,21.178c-0.022-0.118-0.025-0.242-0.073-0.357c-0.048-0.13-0.146-0.238-0.229-0.356
		c-0.073-0.103-0.115-0.217-0.204-0.31l-9.444-9.565c-0.791-0.8-2.082-0.807-2.879-0.019c-0.402,0.401-0.605,0.924-0.605,1.45
		c0,0.514,0.197,1.027,0.59,1.426l6.026,6.105H2.034C0.909,19.552,0,20.461,0,21.583s0.909,2.034,2.034,2.034h24.94l-6.026,6.105
		c-0.393,0.396-0.59,0.912-0.59,1.426c0,0.529,0.204,1.052,0.605,1.447c0.797,0.791,2.088,0.784,2.879-0.02l9.444-9.564
		c0.089-0.09,0.131-0.208,0.204-0.31c0.083-0.118,0.182-0.227,0.229-0.357c0.048-0.111,0.051-0.235,0.073-0.356
		c0.028-0.135,0.077-0.269,0.077-0.405C33.871,21.445,33.822,21.312,33.794,21.178z"/>
	<path style="fill:#706F6F;" d="M38.561,43.168H17.195c-4.263,0-7.729-3.466-7.729-7.729v-6.045c0-1.805,1.46-3.265,3.265-3.265
		s3.265,1.46,3.265,3.265v6.045c0,0.66,0.539,1.199,1.199,1.199h21.365c0.66,0,1.199-0.539,1.199-1.199V7.732
		c0-0.663-0.539-1.202-1.199-1.202H17.195c-0.66,0-1.199,0.539-1.199,1.202v5.296c0,1.805-1.46,3.265-3.265,3.265
		s-3.265-1.46-3.265-3.265V7.732C9.467,3.47,12.933,0,17.195,0h21.365c4.263,0,7.729,3.469,7.729,7.732v27.707
		C46.289,39.702,42.823,43.168,38.561,43.168z"/>
</g>
<g id="Layer_1">
</g>
</svg>
