<?xml version="1.0" encoding="iso-8859-1"?>
<!-- Generator: Adobe Illustrator 15.0.0, SVG Export Plug-In . SVG Version: 6.00 Build 0)  -->
<!DOCTYPE svg PUBLIC "-//W3C//DTD SVG 1.1//EN" "http://www.w3.org/Graphics/SVG/1.1/DTD/svg11.dtd">
<svg version="1.1" id="Layer_1" xmlns="http://www.w3.org/2000/svg" xmlns:xlink="http://www.w3.org/1999/xlink" x="0px" y="0px"
	 width="42.986px" height="42.988px" viewBox="-427 210.012 42.986 42.988"
	 style="enable-background:new -427 210.012 42.986 42.988;" xml:space="preserve">
<g id="Layer_5">
	<path style="fill:#706F6F;" d="M-405.507,210.012c-11.867,0-21.493,9.629-21.493,21.494S-417.374,253-405.507,253
		s21.493-9.629,21.493-21.494S-393.64,210.012-405.507,210.012z M-402.634,240.275c0,1.733-1.288,3.143-2.873,3.143
		c-1.588,0-2.873-1.408-2.873-3.143v-9.847c0-1.733,1.285-3.146,2.873-3.146c1.585,0,2.873,1.412,2.873,3.146V240.275z
		 M-405.513,225.338c-1.582,0-2.873-1.291-2.873-2.873c0-1.586,1.291-2.871,2.873-2.871c1.584,0,2.879,1.285,2.879,2.871
		C-402.634,224.047-403.929,225.338-405.513,225.338z"/>
</g>
<g id="Layer_1_1_">
</g>
</svg>
