<?xml version="1.0" encoding="iso-8859-1"?>
<!-- Generator: Adobe Illustrator 15.0.0, SVG Export Plug-In . SVG Version: 6.00 Build 0)  -->
<!DOCTYPE svg PUBLIC "-//W3C//DTD SVG 1.1//EN" "http://www.w3.org/Graphics/SVG/1.1/DTD/svg11.dtd">
<svg version="1.1" xmlns="http://www.w3.org/2000/svg" xmlns:xlink="http://www.w3.org/1999/xlink" x="0px" y="0px"
	 width="33.881px" height="43.557px" viewBox="0 0 33.881 43.557" style="enable-background:new 0 0 33.881 43.557;"
	 xml:space="preserve">
<g id="_x32_9">
	<polygon style="fill:#706F6F;" points="25.405,2.42 22.988,0 10.889,0 8.469,2.42 0,2.42 0,7.26 33.881,7.26 33.881,2.42 	"/>
	<g>
		<path style="fill:#706F6F;" d="M2.417,9.678v29.039c0,2.662,2.178,4.84,4.844,4.84h19.356c2.659,0,4.844-2.178,4.844-4.84V9.678
			H2.417z M24.886,31.262c0.957,0.957,0.957,2.507,0,3.463c-0.478,0.479-1.103,0.718-1.731,0.718c-0.628,0-1.253-0.239-1.73-0.718
			L16.94,30.24l-4.486,4.484c-0.478,0.479-1.103,0.718-1.731,0.718c-0.628,0-1.253-0.239-1.73-0.718
			c-0.957-0.956-0.957-2.506,0-3.463l4.485-4.484l-4.485-4.484c-0.957-0.957-0.957-2.506,0-3.463c0.956-0.957,2.506-0.957,3.462,0
			l4.486,4.485l4.483-4.485c0.956-0.957,2.506-0.957,3.462,0c0.957,0.957,0.957,2.506,0,3.463l-4.482,4.484L24.886,31.262z"/>
	</g>
</g>
<g id="Layer_1">
</g>
</svg>
