<?xml version="1.0" encoding="iso-8859-1"?>
<!-- Generator: Adobe Illustrator 15.0.0, SVG Export Plug-In . SVG Version: 6.00 Build 0)  -->
<!DOCTYPE svg PUBLIC "-//W3C//DTD SVG 1.1//EN" "http://www.w3.org/Graphics/SVG/1.1/DTD/svg11.dtd">
<svg version="1.1" xmlns="http://www.w3.org/2000/svg" xmlns:xlink="http://www.w3.org/1999/xlink" x="0px" y="0px"
	 width="48.254px" height="47.721px" viewBox="0 0 48.254 47.721" style="enable-background:new 0 0 48.254 47.721;"
	 xml:space="preserve">
<g id="_x39_">
	<path style="fill:#706F6F;" d="M46.593,0.628c-0.103-0.067-0.188-0.153-0.304-0.204c-0.122-0.054-0.271-0.054-0.41-0.086
		c-0.122-0.022-0.233-0.07-0.362-0.07L32.166,0.179c-1.11-0.003-2.021,0.893-2.03,2.009c-0.003,0.561,0.224,1.074,0.591,1.438
		c0.365,0.367,0.864,0.59,1.421,0.597l8.513,0.054L25.44,19.494c-0.787,0.784-0.787,2.066,0,2.85c0.788,0.791,2.064,0.791,2.858,0
		L43.514,7.129l0.057,8.519c0.006,0.549,0.229,1.053,0.594,1.413c0.365,0.37,0.876,0.596,1.441,0.593
		c1.113-0.01,2.014-0.921,2.004-2.034L47.525,2.273c0-0.131-0.053-0.239-0.076-0.36c-0.024-0.141-0.027-0.287-0.087-0.418
		c-0.046-0.111-0.132-0.197-0.202-0.303c-0.073-0.111-0.129-0.236-0.227-0.338C46.833,0.762,46.707,0.698,46.593,0.628z"/>
	<path style="fill:#706F6F;" d="M43.238,37.132H15.824c-2.763,0-5.012-2.254-5.012-5.019V5.012c0-2.764,2.25-5.012,5.012-5.012
		h4.778c1.387,0,2.504,1.122,2.504,2.506c0,1.387-1.117,2.506-2.504,2.506h-4.778v27.101h27.414v-5.796
		c0-1.384,1.122-2.503,2.511-2.503c1.382,0,2.505,1.119,2.505,2.503v5.796C48.254,34.878,46.004,37.132,43.238,37.132z"/>
	<path style="fill:#706F6F;" d="M35.28,47.721H5.253C2.358,47.721,0,45.364,0,42.47V12.786c0-1.387,1.123-2.506,2.508-2.506
		c1.386,0,2.508,1.119,2.508,2.506V42.47c0,0.131,0.105,0.242,0.237,0.242H35.28c1.386,0,2.507,1.116,2.507,2.506
		C37.787,46.599,36.666,47.721,35.28,47.721z"/>
</g>
<g id="Layer_1">
</g>
</svg>
