<?xml version="1.0" encoding="iso-8859-1"?>
<!-- Generator: Adobe Illustrator 15.0.0, SVG Export Plug-In . SVG Version: 6.00 Build 0)  -->
<!DOCTYPE svg PUBLIC "-//W3C//DTD SVG 1.1//EN" "http://www.w3.org/Graphics/SVG/1.1/DTD/svg11.dtd">
<svg version="1.1" xmlns="http://www.w3.org/2000/svg" xmlns:xlink="http://www.w3.org/1999/xlink" x="0px" y="0px"
	 width="52.953px" height="46.954px" viewBox="0 0 52.953 46.954" style="enable-background:new 0 0 52.953 46.954;"
	 xml:space="preserve">
<g id="_x33_3">
	<path style="fill:#706F6F;" d="M52.324,27.02l-8.018-6.36c-0.498-0.394-1.178-0.47-1.751-0.191
		c-0.571,0.276-0.935,0.854-0.935,1.494v4.694h-6.638V12.532c-0.003-0.514-0.214-1.008-0.583-1.368L23.47,0.572L23.228,0.37
		C22.89,0.131,22.475,0,22.042,0H8.765H7.566H4.033C1.805,0,0,1.75,0,3.912v39.125c0,2.166,1.805,3.917,4.033,3.917h26.916
		l0.415-0.018c2.04-0.204,3.622-1.868,3.622-3.899v-2.536h-0.003v-3.339v-3.908v-3.275h6.638v4.7c0,0.636,0.363,1.215,0.935,1.493
		c0.233,0.11,0.478,0.163,0.724,0.163c0.37,0,0.73-0.121,1.027-0.356l8.018-6.356c0.399-0.315,0.629-0.799,0.629-1.302
		C52.953,27.813,52.724,27.332,52.324,27.02z M23.527,6.158l6.932,6.725h-6.932V6.158z M18.678,29.979h12.271v12.08
		c0,0.545-0.445,0.979-1.01,0.979H5.047c-0.562,0-1.014-0.434-1.014-0.979V4.888c0-0.534,0.453-0.976,1.014-0.976h15.349v12.099
		h10.553v10.646H18.678c-0.918,0-1.665,0.748-1.665,1.664C17.013,29.232,17.759,29.979,18.678,29.979z"/>
</g>
<g id="Layer_1">
</g>
</svg>
