<?xml version="1.0" encoding="iso-8859-1"?>
<!-- Generator: Adobe Illustrator 15.0.0, SVG Export Plug-In . SVG Version: 6.00 Build 0)  -->
<!DOCTYPE svg PUBLIC "-//W3C//DTD SVG 1.1//EN" "http://www.w3.org/Graphics/SVG/1.1/DTD/svg11.dtd">
<svg version="1.1" xmlns="http://www.w3.org/2000/svg" xmlns:xlink="http://www.w3.org/1999/xlink" x="0px" y="0px"
	 width="44.031px" height="44.039px" viewBox="0 0 44.031 44.039" style="enable-background:new 0 0 44.031 44.039;"
	 xml:space="preserve">
<g id="_x31_5">
	<g>
		<path style="fill:#706F6F;" d="M34.246,0H4.891C2.174,0,0,2.204,0,4.892v34.253c0,2.688,2.174,4.895,4.891,4.895h34.247
			c2.69,0,4.894-2.207,4.894-4.895V9.783L34.246,0z M39.138,39.145H4.891V4.892h27.324l6.923,6.925V39.145z"/>
	</g>
	<path style="fill:#706F6F;" d="M22.013,22.02c-4.062,0-7.336,3.277-7.336,7.34c0,4.059,3.274,7.34,7.336,7.34
		c4.062,0,7.339-3.281,7.339-7.34C29.352,25.297,26.074,22.02,22.013,22.02"/>
	<rect x="7.333" y="7.34" style="fill:#706F6F;" width="22.019" height="9.785"/>
</g>
<g id="Layer_1">
</g>
</svg>
