<?xml version="1.0" encoding="iso-8859-1"?>
<!-- Generator: Adobe Illustrator 15.0.0, SVG Export Plug-In . SVG Version: 6.00 Build 0)  -->
<!DOCTYPE svg PUBLIC "-//W3C//DTD SVG 1.1//EN" "http://www.w3.org/Graphics/SVG/1.1/DTD/svg11.dtd">
<svg version="1.1" id="Layer_1" xmlns="http://www.w3.org/2000/svg" xmlns:xlink="http://www.w3.org/1999/xlink" x="0px" y="0px"
	 width="43.764px" height="43.764px" viewBox="0 0 43.764 43.764" style="enable-background:new 0 0 43.764 43.764;"
	 xml:space="preserve">
<g id="Layer_6">
	<path style="fill:#706F6F;" d="M12.811,0L0,12.812v18.143l12.811,12.811h18.14l12.813-12.811V12.812L30.95-0.001L12.811,0L12.811,0
		z M18.629,11.96c0-1.961,1.454-3.556,3.25-3.556c1.791,0,3.245,1.595,3.245,3.556v11.137c0,1.966-1.454,3.563-3.245,3.563
		c-1.796,0-3.25-1.598-3.25-3.563V11.96z M21.881,35.361c-1.791,0-3.252-1.457-3.252-3.25c0-1.791,1.461-3.252,3.252-3.252
		c1.793,0,3.25,1.461,3.25,3.252C25.131,33.904,23.674,35.361,21.881,35.361z"/>
</g>
<g id="Layer_1_1_">
</g>
</svg>
