<?xml version="1.0" encoding="iso-8859-1"?>
<!-- Generator: Adobe Illustrator 15.0.0, SVG Export Plug-In . SVG Version: 6.00 Build 0)  -->
<!DOCTYPE svg PUBLIC "-//W3C//DTD SVG 1.1//EN" "http://www.w3.org/Graphics/SVG/1.1/DTD/svg11.dtd">
<svg version="1.1" xmlns="http://www.w3.org/2000/svg" xmlns:xlink="http://www.w3.org/1999/xlink" x="0px" y="0px"
	 width="48.633px" height="38.902px" viewBox="0 0 48.633 38.902" style="enable-background:new 0 0 48.633 38.902;"
	 xml:space="preserve">
<g id="_x34_0">
	<path style="fill:#706F6F;" d="M43.768,4.863H24.318L19.452,0H4.865c-2.697,0-4.84,2.165-4.84,4.862L0,34.043
		c0,2.694,2.168,4.859,4.865,4.859h38.902c2.703,0,4.865-2.165,4.865-4.859V9.725C48.633,7.031,46.471,4.863,43.768,4.863z
		 M40.012,20.16h-4.98v4.982c0,0.915-0.75,1.662-1.665,1.662s-1.661-0.747-1.661-1.662V20.16h-4.983
		c-0.915,0-1.664-0.749-1.664-1.662c0-0.914,0.749-1.663,1.664-1.663h4.983v-4.983c0-0.913,0.746-1.663,1.661-1.663
		s1.665,0.75,1.665,1.663v4.983h4.98c0.918,0,1.664,0.75,1.664,1.663C41.676,19.411,40.93,20.16,40.012,20.16z"/>
</g>
<g id="Layer_1">
</g>
</svg>
