<?xml version="1.0" encoding="iso-8859-1"?>
<!-- Generator: Adobe Illustrator 15.0.0, SVG Export Plug-In . SVG Version: 6.00 Build 0)  -->
<!DOCTYPE svg PUBLIC "-//W3C//DTD SVG 1.1//EN" "http://www.w3.org/Graphics/SVG/1.1/DTD/svg11.dtd">
<svg version="1.1" xmlns="http://www.w3.org/2000/svg" xmlns:xlink="http://www.w3.org/1999/xlink" x="0px" y="0px" width="38.9px"
	 height="51.059px" viewBox="0 0 38.9 51.059" style="enable-background:new 0 0 38.9 51.059;" xml:space="preserve">
<g id="Layer_57">
	<path style="fill:#706F6F;" d="M4.861,51.059h29.174c2.676,0,4.865-2.19,4.865-4.866V21.882c0-2.676-2.189-4.862-4.865-4.862
		h-2.426v-4.863C31.609,5.445,26.16,0,19.451,0c-6.715,0-12.16,5.445-12.16,12.156v4.863h-2.43C2.186,17.02,0,19.206,0,21.882
		v24.311C0,48.868,2.186,51.059,4.861,51.059z M19.451,38.901c-2.678,0-4.865-2.191-4.865-4.863s2.188-4.865,4.865-4.865
		c2.672,0,4.859,2.193,4.859,4.865S22.123,38.901,19.451,38.901z M11.91,12.156c0-4.154,3.381-7.54,7.541-7.54
		c4.154,0,7.535,3.386,7.535,7.54v4.863H11.91V12.156z"/>
</g>
<g id="Layer_1">
</g>
</svg>
