<?xml version="1.0" encoding="iso-8859-1"?>
<!-- Generator: Adobe Illustrator 15.0.0, SVG Export Plug-In . SVG Version: 6.00 Build 0)  -->
<!DOCTYPE svg PUBLIC "-//W3C//DTD SVG 1.1//EN" "http://www.w3.org/Graphics/SVG/1.1/DTD/svg11.dtd">
<svg version="1.1" xmlns="http://www.w3.org/2000/svg" xmlns:xlink="http://www.w3.org/1999/xlink" x="0px" y="0px"
	 width="38.905px" height="51.063px" viewBox="0 0 38.905 51.063" style="enable-background:new 0 0 38.905 51.063;"
	 xml:space="preserve">
<g id="_x32_8">
	<path style="fill:#706F6F;" d="M34.043,17.023H31.61v-4.865C31.61,5.449,26.165,0,19.453,0C12.744,0,7.296,5.449,7.296,12.158
		h4.616c0-4.158,3.383-7.538,7.541-7.538c4.157,0,7.54,3.38,7.54,7.538v4.865H4.866C2.188,17.023,0,19.21,0,21.882v24.315
		c0,2.672,2.188,4.865,4.866,4.865h29.177c2.675,0,4.862-2.193,4.862-4.865V21.882C38.905,19.21,36.718,17.023,34.043,17.023z
		 M19.453,38.902c-2.675,0-4.862-2.191-4.862-4.866c0-2.669,2.188-4.858,4.862-4.858s4.862,2.189,4.862,4.858
		C24.315,36.711,22.128,38.902,19.453,38.902z"/>
</g>
<g id="Layer_1">
</g>
</svg>
