<?xml version="1.0" encoding="iso-8859-1"?>
<!-- Generator: Adobe Illustrator 15.0.0, SVG Export Plug-In . SVG Version: 6.00 Build 0)  -->
<!DOCTYPE svg PUBLIC "-//W3C//DTD SVG 1.1//EN" "http://www.w3.org/Graphics/SVG/1.1/DTD/svg11.dtd">
<svg version="1.1" xmlns="http://www.w3.org/2000/svg" xmlns:xlink="http://www.w3.org/1999/xlink" x="0px" y="0px"
	 width="40.065px" height="47.814px" viewBox="0 0 40.065 47.814" style="enable-background:new 0 0 40.065 47.814;"
	 xml:space="preserve">
<g id="_x33_2">
	<path style="fill:#706F6F;" d="M40.064,10.769l-0.025-0.285c-0.069-0.423-0.277-0.821-0.586-1.119l-9.074-8.802l-0.22-0.175
		C29.812,0.137,29.379,0,28.941,0H12.085l-0.363,0.019C9.804,0.208,8.357,1.768,8.357,3.647v4.456L3.75,8.104
		C1.682,8.104,0,9.74,0,11.752v32.41c0,2.014,1.682,3.652,3.75,3.652h24.221l0.373-0.016c1.92-0.191,3.368-1.754,3.368-3.637
		l-0.003-4.457l4.625,0.005l0.363-0.017c1.92-0.191,3.368-1.752,3.368-3.631L40.064,10.769z M26.387,18.619h-4.85v-4.705
		L26.387,18.619z M27.555,21.958v21.395c0,0.221-0.191,0.4-0.428,0.4H4.588c-0.238,0-0.431-0.18-0.431-0.4v-30.79
		c0-0.223,0.193-0.403,0.431-0.403h13.608v9.798H27.555z M31.1,17.466l-9.072-8.791l-0.229-0.191
		c-0.355-0.249-0.775-0.38-1.214-0.38l-8.07-0.001l-0.001-3.601l0.008-0.128c0.046-0.185,0.222-0.318,0.417-0.318L27.86,4.052
		l0.126,0.013c0.086,0.018,0.164,0.058,0.225,0.115l7.551,7.324l0.08,0.089c0.043,0.064,0.066,0.139,0.066,0.217l0.002,23.399
		l-0.009,0.128c-0.048,0.187-0.22,0.317-0.421,0.317l-3.771-0.005l0.003-16.744C31.712,18.371,31.488,17.847,31.1,17.466z"/>
</g>
<g id="Layer_1">
</g>
</svg>
