<?xml version="1.0" encoding="iso-8859-1"?>
<!-- Generator: Adobe Illustrator 15.0.0, SVG Export Plug-In . SVG Version: 6.00 Build 0)  -->
<!DOCTYPE svg PUBLIC "-//W3C//DTD SVG 1.1//EN" "http://www.w3.org/Graphics/SVG/1.1/DTD/svg11.dtd">
<svg version="1.1" xmlns="http://www.w3.org/2000/svg" xmlns:xlink="http://www.w3.org/1999/xlink" x="0px" y="0px"
	 width="43.646px" height="43.648px" viewBox="0 0 43.646 43.648" style="enable-background:new 0 0 43.646 43.648;"
	 xml:space="preserve">
<g id="_x33_1">
	<path style="fill:#706F6F;" d="M21.821,0C9.778,0,0,9.779,0,21.825c0,12.048,9.778,21.823,21.821,21.823
		c12.049,0,21.824-9.775,21.824-21.823C43.646,9.779,33.87,0,21.821,0z M21.821,37.866c-1.63,0-2.946-1.318-2.946-2.946
		c0-1.627,1.316-2.947,2.946-2.947c1.622,0,2.946,1.32,2.946,2.947C24.768,36.548,23.443,37.866,21.821,37.866z M28.526,20.187
		l-1.968,2.01c-1.094,1.114-1.878,2.118-2.267,3.689c-0.175,0.698-0.287,1.482-0.287,2.485h-4.364v-1.092
		c0-1.003,0.175-1.963,0.48-2.857c0.438-1.268,1.161-2.402,2.07-3.315l2.713-2.753c1.001-0.958,1.479-2.399,1.195-3.925
		c-0.283-1.572-1.505-2.905-3.032-3.341c-2.423-0.675-4.671,0.7-5.388,2.771c-0.266,0.81-0.938,1.42-1.789,1.42h-0.657
		c-1.269,0-2.136-1.223-1.788-2.444c0.938-3.209,3.666-5.653,7.049-6.176c3.313-0.523,6.479,1.199,8.446,3.926
		C31.514,14.143,30.752,17.962,28.526,20.187z"/>
</g>
<g id="Layer_1">
</g>
</svg>
