<?xml version="1.0" encoding="iso-8859-1"?>
<!-- Generator: Adobe Illustrator 15.0.0, SVG Export Plug-In . SVG Version: 6.00 Build 0)  -->
<!DOCTYPE svg PUBLIC "-//W3C//DTD SVG 1.1//EN" "http://www.w3.org/Graphics/SVG/1.1/DTD/svg11.dtd">
<svg version="1.1" id="Layer_1" xmlns="http://www.w3.org/2000/svg" xmlns:xlink="http://www.w3.org/1999/xlink" x="0px" y="0px"
	 width="51.392px" height="35.039px" viewBox="-422 214.961 51.392 35.039"
	 style="enable-background:new -422 214.961 51.392 35.039;" xml:space="preserve">
<g id="Layer_15">
	<g>
		<path style="fill:#706F6F;" d="M-396.308,214.961c-11.68,0-21.655,7.264-25.692,17.516c4.037,10.261,14.015,17.523,25.692,17.523
			c11.683,0,21.659-7.264,25.699-17.523C-374.648,222.225-384.625,214.961-396.308,214.961z M-396.308,244.16
			c-6.447,0-11.68-5.232-11.68-11.684c0-6.443,5.231-11.679,11.68-11.679c6.45,0,11.683,5.234,11.683,11.679
			C-384.625,238.928-389.857,244.16-396.308,244.16z"/>
		<path style="fill:#706F6F;" d="M-396.308,225.473c-3.877,0-7.008,3.127-7.008,7.004c0,3.886,3.131,7.013,7.008,7.013
			c3.881,0,7.012-3.127,7.012-7.013C-389.296,228.6-392.427,225.473-396.308,225.473z"/>
	</g>
</g>
<g id="Layer_1_1_">
</g>
</svg>
