<?xml version="1.0" encoding="iso-8859-1"?>
<!-- Generator: Adobe Illustrator 15.0.0, SVG Export Plug-In . SVG Version: 6.00 Build 0)  -->
<!DOCTYPE svg PUBLIC "-//W3C//DTD SVG 1.1//EN" "http://www.w3.org/Graphics/SVG/1.1/DTD/svg11.dtd">
<svg version="1.1" id="Layer_1" xmlns="http://www.w3.org/2000/svg" xmlns:xlink="http://www.w3.org/1999/xlink" x="0px" y="0px"
	 width="43.914px" height="43.908px" viewBox="0 0 43.914 43.908" style="enable-background:new 0 0 43.914 43.908;"
	 xml:space="preserve">
<g id="Layer_17">
	<g>
		<rect y="34.149" style="fill:#706F6F;" width="14.639" height="4.883"/>
		<rect y="4.878" style="fill:#706F6F;" width="24.398" height="4.878"/>
		<polygon style="fill:#706F6F;" points="24.398,29.269 19.517,29.269 19.517,43.907 24.398,43.907 24.398,39.032 43.914,39.032 
			43.914,34.149 24.398,34.149 		"/>
		<polygon style="fill:#706F6F;" points="0,24.394 9.76,24.394 9.76,29.269 14.639,29.269 14.639,14.634 9.76,14.634 9.76,19.513 
			0,19.513 		"/>
		<rect x="19.517" y="19.513" style="fill:#706F6F;" width="24.397" height="4.881"/>
		<polygon style="fill:#706F6F;" points="34.158,0 29.275,0 29.275,14.634 34.158,14.634 34.158,9.756 43.914,9.756 43.914,4.878 
			34.158,4.878 		"/>
	</g>
</g>
<g id="Layer_1_1_">
</g>
</svg>
