<?xml version="1.0" encoding="iso-8859-1"?>
<!-- Generator: Adobe Illustrator 15.0.0, SVG Export Plug-In . SVG Version: 6.00 Build 0)  -->
<!DOCTYPE svg PUBLIC "-//W3C//DTD SVG 1.1//EN" "http://www.w3.org/Graphics/SVG/1.1/DTD/svg11.dtd">
<svg version="1.1" id="Layer_1" xmlns="http://www.w3.org/2000/svg" xmlns:xlink="http://www.w3.org/1999/xlink" x="0px" y="0px"
	 width="42.527px" height="42.527px" viewBox="0 0 42.527 42.527" style="enable-background:new 0 0 42.527 42.527;"
	 xml:space="preserve">
<g id="Layer_56">
	<path style="fill:#706F6F;" d="M28.473,26.747l-0.681-0.656c2.383-2.772,3.816-6.373,3.816-10.284
		c0-8.73-7.078-15.808-15.806-15.808C7.077-0.001,0,7.075,0,15.806c0,8.729,7.078,15.805,15.805,15.805
		c3.916,0,7.513-1.437,10.285-3.82l0.654,0.683v1.924l12.16,12.131l3.623-3.621L30.394,26.749h-1.921V26.747z M15.804,26.747
		c-6.055,0-10.938-4.885-10.938-10.94c0-6.057,4.885-10.943,10.938-10.943c6.06,0,10.939,4.887,10.939,10.943
		C26.744,21.862,21.863,26.747,15.804,26.747z"/>
</g>
<g id="Layer_1_1_">
</g>
</svg>
