<?xml version="1.0" encoding="iso-8859-1"?>
<!-- Generator: Adobe Illustrator 15.0.0, SVG Export Plug-In . SVG Version: 6.00 Build 0)  -->
<!DOCTYPE svg PUBLIC "-//W3C//DTD SVG 1.1//EN" "http://www.w3.org/Graphics/SVG/1.1/DTD/svg11.dtd">
<svg version="1.1" xmlns="http://www.w3.org/2000/svg" xmlns:xlink="http://www.w3.org/1999/xlink" x="0px" y="0px"
	 width="33.109px" height="34.043px" viewBox="0 0 33.109 34.043" style="enable-background:new 0 0 33.109 34.043;"
	 xml:space="preserve">
<g id="_x33_0">
	<path style="fill:#706F6F;" d="M0.116,22.613l3.405,5.885c0.22,0.364,0.657,0.511,1.046,0.364l4.231-1.703
		c0.874,0.683,1.824,1.244,2.87,1.681l0.631,4.496c0.074,0.389,0.437,0.707,0.852,0.707h6.807c0.415,0,0.778-0.318,0.852-0.733
		l0.632-4.499c1.021-0.434,1.992-0.994,2.869-1.674l4.231,1.703c0.389,0.144,0.825,0,1.046-0.367l3.401-5.886
		c0.224-0.363,0.125-0.825-0.194-1.093l-3.597-2.819c0.073-0.538,0.121-1.1,0.121-1.654c0-0.559-0.048-1.119-0.121-1.677
		l3.597-2.825c0.319-0.262,0.418-0.724,0.194-1.091l-3.401-5.882c-0.221-0.367-0.657-0.514-1.046-0.367L24.31,6.884
		c-0.877-0.686-1.823-1.247-2.869-1.683l-0.632-4.496C20.735,0.313,20.372,0,19.957,0H13.15c-0.415,0-0.778,0.313-0.852,0.727
		l-0.631,4.499c-1.021,0.44-1.996,0.998-2.87,1.68L4.567,5.201c-0.389-0.144-0.826,0-1.046,0.366l-3.405,5.886
		c-0.217,0.364-0.118,0.823,0.198,1.097l3.596,2.812c-0.073,0.539-0.121,1.1-0.121,1.658c0,0.555,0.048,1.116,0.121,1.677
		L0.314,21.52C-0.002,21.784-0.101,22.243,0.116,22.613z M16.553,12.158c2.678,0,4.865,2.184,4.865,4.862
		c0,2.678-2.188,4.865-4.865,4.865c-2.675,0-4.862-2.188-4.862-4.865C11.69,14.342,13.877,12.158,16.553,12.158z"/>
</g>
<g id="Layer_1">
</g>
</svg>
