<?xml version="1.0" encoding="iso-8859-1"?>
<!-- Generator: Adobe Illustrator 15.0.0, SVG Export Plug-In . SVG Version: 6.00 Build 0)  -->
<!DOCTYPE svg PUBLIC "-//W3C//DTD SVG 1.1//EN" "http://www.w3.org/Graphics/SVG/1.1/DTD/svg11.dtd">
<svg version="1.1" xmlns="http://www.w3.org/2000/svg" xmlns:xlink="http://www.w3.org/1999/xlink" x="0px" y="0px"
	 width="33.733px" height="43.426px" viewBox="0 0 33.733 43.426" style="enable-background:new 0 0 33.733 43.426;"
	 xml:space="preserve">
<g id="_x36_">
	<path style="fill:#706F6F;" d="M16.867,43.426c2.672,0,4.862-2.188,4.862-4.859h-9.724C12.004,41.238,14.163,43.426,16.867,43.426z
		"/>
	<path style="fill:#706F6F;" d="M29.521,28.466V17.922c0-6.476-3.463-11.895-9.492-13.328V3.163C20.029,1.409,18.617,0,16.867,0
		c-1.748,0-3.163,1.409-3.163,3.163v1.431c-6.052,1.433-9.486,6.836-9.486,13.328v10.544L0,32.68v2.112h33.733V32.68L29.521,28.466z
		 M14.517,12.763c0-1.419,1.053-2.572,2.35-2.572c1.294,0,2.346,1.153,2.346,2.572v8.052c0,1.419-1.052,2.575-2.346,2.575
		c-1.297,0-2.35-1.156-2.35-2.575V12.763z M16.867,29.683c-1.294,0-2.35-1.052-2.35-2.351c0-1.295,1.056-2.353,2.35-2.353
		s2.35,1.058,2.35,2.353C19.217,28.631,18.161,29.683,16.867,29.683z"/>
</g>
<g id="Layer_1">
</g>
</svg>
