<?xml version="1.0" encoding="iso-8859-1"?>
<!-- Generator: Adobe Illustrator 15.0.0, SVG Export Plug-In . SVG Version: 6.00 Build 0)  -->
<!DOCTYPE svg PUBLIC "-//W3C//DTD SVG 1.1//EN" "http://www.w3.org/Graphics/SVG/1.1/DTD/svg11.dtd">
<svg version="1.1" xmlns="http://www.w3.org/2000/svg" xmlns:xlink="http://www.w3.org/1999/xlink" x="0px" y="0px"
	 width="43.729px" height="43.732px" viewBox="0 0 43.729 43.732" style="enable-background:new 0 0 43.729 43.732;"
	 xml:space="preserve">
<g id="_x32_7">
	<path style="fill:#706F6F;" d="M21.863,0C9.795,0,0,9.795,0,21.866s9.795,21.866,21.863,21.866s21.866-9.795,21.866-21.866
		S33.932,0,21.863,0z M21.863,39.355c-9.642,0-17.491-7.85-17.491-17.489c0-9.645,7.85-17.49,17.491-17.49
		c9.645,0,17.495,7.845,17.495,17.49C39.358,31.506,31.508,39.355,21.863,39.355z"/>
	<path style="fill:#706F6F;" d="M29.226,20.516l-9.881-6.973c-0.284-0.201-0.619-0.305-0.953-0.305
		c-0.259,0-0.521,0.064-0.756,0.187c-0.549,0.284-0.893,0.848-0.893,1.465v13.95c0,0.619,0.344,1.181,0.893,1.465
		c0.235,0.123,0.497,0.186,0.756,0.186c0.334,0,0.669-0.104,0.953-0.301l9.881-6.977c0.437-0.309,0.698-0.814,0.698-1.347
		C29.924,21.331,29.662,20.825,29.226,20.516z"/>
</g>
<g id="Layer_1">
</g>
</svg>
