<?xml version="1.0" encoding="iso-8859-1"?>
<!-- Generator: Adobe Illustrator 15.0.0, SVG Export Plug-In . SVG Version: 6.00 Build 0)  -->
<!DOCTYPE svg PUBLIC "-//W3C//DTD SVG 1.1//EN" "http://www.w3.org/Graphics/SVG/1.1/DTD/svg11.dtd">
<svg version="1.1" xmlns="http://www.w3.org/2000/svg" xmlns:xlink="http://www.w3.org/1999/xlink" x="0px" y="0px"
	 width="60.788px" height="41.163px" viewBox="0 0 60.788 41.163" style="enable-background:new 0 0 60.788 41.163;"
	 xml:space="preserve">
<g id="_x38_">
	<path style="fill:#706F6F;" d="M60.678,26.209c-0.487-3.545-2.478-6.619-5.908-9.144c-1.734-1.275-3.759-2.181-5.917-2.672
		C45.546,5.396,37.049-0.58,28.159,0.045C19.375,0.657,14.19,7.404,12.568,9.891c-3.759,1.09-7.049,3.354-9.345,6.453
		c-2.468,3.329-3.574,7.295-3.125,11.172c0.705,6.122,5.217,11.37,11.491,13.455c0.02,0.007,0.038,0.013,0.058,0.025
		c0.051,0.013,0.099,0.044,0.153,0.058c0.226,0.076,0.449,0.108,0.666,0.108h15.85c1.212,0,2.197-0.989,2.197-2.2
		c0-1.218-0.985-2.2-2.197-2.2H12.877c-4.607-1.568-7.897-5.369-8.404-9.75c-0.679-5.854,3.714-11.6,10.008-13.072l0.937-0.224
		l0.476-0.835c0.182-0.325,4.553-7.888,12.575-8.449c7.275-0.504,14.255,4.763,16.602,12.53l0.408,1.352l1.396,0.191
		c1.948,0.268,3.775,0.995,5.29,2.104c0.905,0.669,3.67,2.704,4.151,6.198c0.179,1.326,0.006,2.736-0.507,4.074
		c-0.434,1.136,0.137,2.404,1.271,2.838c1.136,0.434,2.411-0.134,2.841-1.269C60.7,30.424,60.958,28.27,60.678,26.209z"/>
	<path style="fill:#706F6F;" d="M41.707,20.26c-0.303-0.574-0.899-0.938-1.553-0.938H34.38c0-0.013,0.007-0.019,0.007-0.032v-6.199
		c0-1.626-1.317-2.939-2.94-2.939H28.07c-1.623,0-2.94,1.313-2.94,2.939v6.199c0,0.013,0.003,0.019,0.003,0.032h-5.637
		c-0.653,0-1.256,0.363-1.553,0.938c-0.134,0.261-0.197,0.536-0.197,0.81c0,0.357,0.108,0.702,0.322,1.015l10.327,10.464
		c0.329,0.459,0.861,0.739,1.428,0.739c0.568,0,1.101-0.28,1.429-0.739l10.33-10.464c0.214-0.313,0.322-0.657,0.322-1.015
		C41.904,20.795,41.838,20.521,41.707,20.26z"/>
	<path style="fill:#706F6F;" d="M38.098,39.021c0.265,0.197,0.587,0.268,0.893,0.223c0.303-0.044,0.587-0.204,0.788-0.472
		c0.003-0.006,0.006-0.02,0.009-0.025c0.01-0.013,0.022-0.02,0.025-0.025l7.155-9.572c0.396-0.535,0.284-1.287-0.249-1.684
		c-0.529-0.395-1.281-0.28-1.677,0.249l-6.476,8.667l-3.201-2.379c-0.532-0.396-1.285-0.287-1.677,0.248
		c-0.396,0.529-0.284,1.282,0.248,1.678L38.098,39.021z"/>
	<path style="fill:#706F6F;" d="M44.975,39.021c0.265,0.197,0.587,0.268,0.894,0.223c0.303-0.044,0.586-0.204,0.787-0.472
		c0.003-0.006,0.007-0.02,0.01-0.025c0.01-0.013,0.022-0.02,0.025-0.025l7.154-9.572c0.396-0.535,0.284-1.287-0.248-1.684
		c-0.529-0.395-1.282-0.28-1.678,0.249l-6.476,8.667l-3.201-2.379c-0.532-0.396-1.284-0.287-1.677,0.248
		c-0.396,0.529-0.284,1.282,0.249,1.678L44.975,39.021z"/>
</g>
<g id="Layer_1">
</g>
</svg>
