<?xml version="1.0" encoding="iso-8859-1"?>
<!-- Generator: Adobe Illustrator 15.0.0, SVG Export Plug-In . SVG Version: 6.00 Build 0)  -->
<!DOCTYPE svg PUBLIC "-//W3C//DTD SVG 1.1//EN" "http://www.w3.org/Graphics/SVG/1.1/DTD/svg11.dtd">
<svg version="1.1" xmlns="http://www.w3.org/2000/svg" xmlns:xlink="http://www.w3.org/1999/xlink" x="0px" y="0px"
	 width="48.627px" height="48.629px" viewBox="0 0 48.627 48.629" style="enable-background:new 0 0 48.627 48.629;"
	 xml:space="preserve">
<g id="Layer_9">
	<path style="fill:#706F6F;" d="M24.311,0C10.866,0,0,10.865,0,24.314c0,13.444,10.865,24.315,24.311,24.315
		c13.449,0,24.316-10.871,24.316-24.315C48.627,10.865,37.76,0,24.311,0z M37.008,33.34c1.014,1.014,1.014,2.656,0,3.67
		c-0.508,0.508-1.17,0.762-1.836,0.762c-0.664,0-1.328-0.254-1.834-0.762l-9.027-9.023l-9.025,9.023
		c-0.508,0.508-1.17,0.762-1.834,0.762c-0.666,0-1.33-0.254-1.836-0.762c-1.014-1.014-1.014-2.656,0-3.67l9.025-9.026l-9.025-9.024
		c-1.014-1.014-1.014-2.658,0-3.672c1.014-1.014,2.656-1.014,3.67,0l9.025,9.024l9.027-9.024c1.014-1.014,2.656-1.014,3.67,0
		c1.014,1.014,1.014,2.658,0,3.672l-9.027,9.024L37.008,33.34z"/>
</g>
<g id="Layer_1">
</g>
</svg>
