<?xml version="1.0" encoding="iso-8859-1"?>
<!-- Generator: Adobe Illustrator 15.0.0, SVG Export Plug-In . SVG Version: 6.00 Build 0)  -->
<!DOCTYPE svg PUBLIC "-//W3C//DTD SVG 1.1//EN" "http://www.w3.org/Graphics/SVG/1.1/DTD/svg11.dtd">
<svg version="1.1" id="Layer_1" xmlns="http://www.w3.org/2000/svg" xmlns:xlink="http://www.w3.org/1999/xlink" x="0px" y="0px"
	 width="42.438px" height="42.438px" viewBox="-427 210.563 42.438 42.438"
	 style="enable-background:new -427 210.563 42.438 42.438;" xml:space="preserve">
<g id="Layer_4">
	<path style="fill:#706F6F;" d="M-388.806,210.563h-33.952c-2.334,0-4.223,1.908-4.223,4.244L-427,253l8.488-8.486h29.705
		c2.335,0,4.244-1.908,4.244-4.246v-25.461C-384.562,212.471-386.471,210.563-388.806,210.563z M-408.618,219.234
		c0-1.711,1.269-3.104,2.834-3.104c1.563,0,2.835,1.393,2.835,3.104v9.72c0,1.715-1.271,3.108-2.835,3.108
		c-1.565,0-2.834-1.395-2.834-3.108V219.234z M-405.781,239.656c-1.564,0-2.837-1.273-2.837-2.836c0-1.563,1.271-2.839,2.837-2.839
		s2.835,1.275,2.835,2.839C-402.946,238.383-404.215,239.656-405.781,239.656z"/>
</g>
<g id="Layer_1_1_">
</g>
</svg>
