<?xml version="1.0" encoding="iso-8859-1"?>
<!-- Generator: Adobe Illustrator 15.0.0, SVG Export Plug-In . SVG Version: 6.00 Build 0)  -->
<!DOCTYPE svg PUBLIC "-//W3C//DTD SVG 1.1//EN" "http://www.w3.org/Graphics/SVG/1.1/DTD/svg11.dtd">
<svg version="1.1" xmlns="http://www.w3.org/2000/svg" xmlns:xlink="http://www.w3.org/1999/xlink" x="0px" y="0px"
	 width="50.491px" height="43.168px" viewBox="0 0 50.491 43.168" style="enable-background:new 0 0 50.491 43.168;"
	 xml:space="preserve">
<g id="_x31_7">
	<path style="fill:#706F6F;" d="M50.415,21.178c-0.022-0.118-0.025-0.242-0.074-0.357c-0.047-0.13-0.146-0.238-0.229-0.356
		c-0.074-0.103-0.115-0.217-0.205-0.31l-9.443-9.565c-0.791-0.8-2.082-0.807-2.879-0.019c-0.402,0.401-0.606,0.924-0.606,1.45
		c0,0.514,0.198,1.027,0.59,1.426l6.026,6.105H18.655c-1.126,0-2.034,0.909-2.034,2.031s0.908,2.034,2.034,2.034h24.939
		l-6.026,6.105c-0.392,0.396-0.59,0.912-0.59,1.426c0,0.529,0.204,1.052,0.606,1.447c0.797,0.791,2.088,0.784,2.879-0.02
		l9.443-9.564c0.09-0.09,0.131-0.208,0.205-0.31c0.082-0.118,0.182-0.227,0.229-0.357c0.049-0.111,0.052-0.235,0.074-0.356
		c0.028-0.135,0.076-0.269,0.076-0.405C50.491,21.445,50.443,21.312,50.415,21.178z"/>
	<path style="fill:#706F6F;" d="M7.729,0h18.101c4.263,0,7.729,3.466,7.729,7.729v6.045c0,1.805-1.46,3.265-3.265,3.265
		s-3.265-1.46-3.265-3.265V7.729c0-0.66-0.539-1.199-1.199-1.199H7.729c-0.66,0-1.199,0.539-1.199,1.199v27.708
		c0,0.663,0.539,1.202,1.199,1.202h18.101c0.66,0,1.199-0.539,1.199-1.202v-5.296c0-1.805,1.46-3.265,3.265-3.265
		s3.265,1.46,3.265,3.265v5.296c0,4.263-3.466,7.731-7.729,7.731H7.729C3.465,43.168,0,39.699,0,35.437V7.729
		C0,3.466,3.465,0,7.729,0z"/>
</g>
<g id="Layer_1">
</g>
</svg>
