<?xml version="1.0" encoding="iso-8859-1"?>
<!-- Generator: Adobe Illustrator 15.0.0, SVG Export Plug-In . SVG Version: 6.00 Build 0)  -->
<!DOCTYPE svg PUBLIC "-//W3C//DTD SVG 1.1//EN" "http://www.w3.org/Graphics/SVG/1.1/DTD/svg11.dtd">
<svg version="1.1" id="Layer_1" xmlns="http://www.w3.org/2000/svg" xmlns:xlink="http://www.w3.org/1999/xlink" x="0px" y="0px"
	 width="51.367px" height="44.383px" viewBox="-422 209.616 51.367 44.383"
	 style="enable-background:new -422 209.616 51.367 44.383;" xml:space="preserve">
<g id="Layer_12">
	<g>
		<path style="fill:#706F6F;" d="M-396.328,213.123c-3.271,0-6.404,0.584-9.301,1.631l5.049,5.049
			c1.328-0.537,2.758-0.842,4.271-0.842c6.451,0,11.682,5.232,11.682,11.682c0,1.515-0.309,2.941-0.842,4.275l6.818,6.818
			c3.531-2.945,6.309-6.752,8.018-11.094C-374.676,220.387-384.648,213.123-396.328,213.123z"/>
		<path style="fill:#706F6F;" d="M-419.664,212.586l5.324,5.322l1.078,1.076c-3.877,3.014-6.918,7.029-8.738,11.658
			c4.033,10.25,14.012,17.52,25.691,17.52c3.619,0,7.078-0.705,10.232-1.963l0.98,0.982l6.844,6.817l2.969-2.969l-41.416-41.414
			L-419.664,212.586z M-406.748,225.498l3.619,3.623c-0.117,0.486-0.184,1.006-0.184,1.521c0,3.877,3.131,7.006,7.004,7.006
			c0.514,0,1.027-0.072,1.523-0.188l3.617,3.621c-1.563,0.771-3.291,1.24-5.141,1.24c-6.441,0-11.68-5.234-11.68-11.681
			C-407.988,228.793-407.52,227.064-406.748,225.498z"/>
		<path style="fill:#706F6F;" d="M-396.283,223.658l-0.398,0.023l7.361,7.354l0.045-0.373
			C-389.275,226.787-392.406,223.658-396.283,223.658z"/>
	</g>
</g>
<g id="Layer_1_1_">
</g>
</svg>
