<?xml version="1.0" encoding="iso-8859-1"?>
<!-- Generator: Adobe Illustrator 15.0.0, SVG Export Plug-In . SVG Version: 6.00 Build 0)  -->
<!DOCTYPE svg PUBLIC "-//W3C//DTD SVG 1.1//EN" "http://www.w3.org/Graphics/SVG/1.1/DTD/svg11.dtd">
<svg version="1.1" xmlns="http://www.w3.org/2000/svg" xmlns:xlink="http://www.w3.org/1999/xlink" x="0px" y="0px"
	 width="33.848px" height="33.848px" viewBox="0 0 33.848 33.848" style="enable-background:new 0 0 33.848 33.848;"
	 xml:space="preserve">
<g id="_x36_2">
	<path style="fill:#706F6F;" d="M21.541,16.923L32.892,5.573c1.275-1.275,1.275-3.342,0-4.617c-1.275-1.275-3.342-1.275-4.617,0
		L16.924,12.307L5.573,0.956c-1.275-1.275-3.342-1.275-4.617,0c-1.275,1.275-1.275,3.341,0,4.617l11.351,11.351L0.957,28.273
		c-1.275,1.275-1.275,3.342,0,4.617c0.637,0.639,1.473,0.957,2.308,0.957c0.835,0,1.671-0.318,2.309-0.957l11.351-11.35
		l11.351,11.35c0.638,0.639,1.474,0.957,2.309,0.957s1.671-0.318,2.309-0.957c1.275-1.275,1.275-3.342,0-4.617L21.541,16.923z"/>
</g>
<g id="Layer_1">
</g>
</svg>
