<?xml version="1.0" encoding="iso-8859-1"?>
<!-- Generator: Adobe Illustrator 15.0.0, SVG Export Plug-In . SVG Version: 6.00 Build 0)  -->
<!DOCTYPE svg PUBLIC "-//W3C//DTD SVG 1.1//EN" "http://www.w3.org/Graphics/SVG/1.1/DTD/svg11.dtd">
<svg version="1.1" xmlns="http://www.w3.org/2000/svg" xmlns:xlink="http://www.w3.org/1999/xlink" x="0px" y="0px"
	 width="43.352px" height="41.415px" viewBox="0 0 43.352 41.415" style="enable-background:new 0 0 43.352 41.415;"
	 xml:space="preserve">
<g id="_x33_4">
	<path style="fill:#706F6F;" d="M43.258,15.681c-0.22-0.684-0.813-1.183-1.527-1.287L29.044,12.55L23.372,1.054
		C23.05,0.409,22.396,0,21.676,0s-1.374,0.408-1.696,1.054L14.308,12.55l-12.69,1.845c-0.711,0.104-1.304,0.603-1.523,1.287
		c-0.224,0.686-0.039,1.435,0.479,1.938l9.179,8.949L7.58,39.205c-0.121,0.709,0.175,1.426,0.759,1.848
		c0.58,0.426,1.354,0.48,1.993,0.144l11.344-5.964l11.348,5.964c0.277,0.146,0.58,0.218,0.88,0.218c0.393,0,0.784-0.122,1.112-0.361
		c0.584-0.422,0.874-1.139,0.753-1.848l-2.168-12.637l9.183-8.949C43.297,17.116,43.481,16.367,43.258,15.681z"/>
</g>
<g id="Layer_1">
</g>
</svg>
