<?xml version="1.0" encoding="iso-8859-1"?>
<!-- Generator: Adobe Illustrator 15.0.0, SVG Export Plug-In . SVG Version: 6.00 Build 0)  -->
<!DOCTYPE svg PUBLIC "-//W3C//DTD SVG 1.1//EN" "http://www.w3.org/Graphics/SVG/1.1/DTD/svg11.dtd">
<svg version="1.1" xmlns="http://www.w3.org/2000/svg" xmlns:xlink="http://www.w3.org/1999/xlink" x="0px" y="0px"
	 width="39.176px" height="39.176px" viewBox="0 0 39.176 39.176" style="enable-background:new 0 0 39.176 39.176;"
	 xml:space="preserve">
<g id="_x35_">
	<path style="fill:#706F6F;" d="M4.897,7.563c0-1.474,1.196-2.666,2.666-2.666h7.129V0H7.563C3.393,0,0,3.393,0,7.563v7.126h4.897
		V7.563z"/>
	<path style="fill:#706F6F;" d="M31.613,4.897c1.473,0,2.666,1.192,2.666,2.666v7.126h4.896V7.563C39.176,3.393,35.783,0,31.613,0
		h-7.127v4.897H31.613z"/>
	<path style="fill:#706F6F;" d="M7.563,34.279c-1.47,0-2.666-1.193-2.666-2.666v-7.129H0v7.129c0,4.171,3.393,7.563,7.563,7.563
		h7.129v-4.896H7.563z"/>
	<path style="fill:#706F6F;" d="M34.279,31.613c0,1.473-1.193,2.666-2.666,2.666h-7.127v4.896h7.127c4.17,0,7.563-3.392,7.563-7.563
		v-7.129h-4.896V31.613z"/>
</g>
<g id="Layer_1">
</g>
</svg>
