<?xml version="1.0" encoding="iso-8859-1"?>
<!-- Generator: Adobe Illustrator 15.0.0, SVG Export Plug-In . SVG Version: 6.00 Build 0)  -->
<!DOCTYPE svg PUBLIC "-//W3C//DTD SVG 1.1//EN" "http://www.w3.org/Graphics/SVG/1.1/DTD/svg11.dtd">
<svg version="1.1" xmlns="http://www.w3.org/2000/svg" xmlns:xlink="http://www.w3.org/1999/xlink" x="0px" y="0px"
	 width="53.721px" height="38.379px" viewBox="0 0 53.721 38.379" style="enable-background:new 0 0 53.721 38.379;"
	 xml:space="preserve">
<g id="_x31_1">
	<path style="fill:#706F6F;" d="M50.191,7.18l-5.819-6.736c-0.49-0.577-1.291-0.577-1.785,0s-0.494,1.502,0,2.069l3.654,4.237
		L5.614,6.737L9.268,2.51c0.494-0.587,0.494-1.512,0-2.07c-0.495-0.586-1.295-0.586-1.786,0L1.657,7.174
		c-0.491,0.577-0.491,1.495,0,2.066l5.825,6.74c0.491,0.574,1.291,0.574,1.786,0c0.494-0.577,0.494-1.492,0-2.069L5.614,9.67
		l40.627,0.023l-3.654,4.221c-0.494,0.577-0.494,1.502,0,2.076c0.494,0.573,1.295,0.573,1.785,0l5.819-6.747
		C50.688,8.679,50.688,7.751,50.191,7.18z"/>
	<path style="fill:#706F6F;" d="M52.5,19.172H3.975H1.223c-0.672,0-1.221,0.615-1.221,1.374v16.459
		c-0.003,0.044-0.003,0.086,0,0.131c0.061,0.704,0.586,1.246,1.221,1.243H52.5c0.673,0,1.221-0.615,1.221-1.374V20.546
		C53.721,19.787,53.173,19.172,52.5,19.172z M51.278,35.634h-7.936v-6.858c0.01-0.759-0.529-1.381-1.202-1.394
		c-0.676-0.009-1.23,0.597-1.24,1.355c0,0.013,0,0.022,0,0.038v6.858h-7.933v-6.858c0.006-0.759-0.533-1.381-1.205-1.394
		c-0.673-0.009-1.231,0.597-1.237,1.355c0,0.013,0,0.022,0,0.038v6.858h-7.939v-6.858c0.013-0.759-0.526-1.381-1.202-1.394
		c-0.676-0.009-1.228,0.597-1.237,1.355c0,0.013,0,0.022,0,0.038v6.858H12.21v-6.858c0.01-0.759-0.532-1.381-1.205-1.394
		c-0.676-0.009-1.228,0.597-1.237,1.355c0,0.013,0,0.022,0,0.038v6.858H2.441v-13.72h48.837V35.634z"/>
</g>
<g id="Layer_1">
</g>
</svg>
