<?xml version="1.0" encoding="iso-8859-1"?>
<!-- Generator: Adobe Illustrator 15.0.0, SVG Export Plug-In . SVG Version: 6.00 Build 0)  -->
<!DOCTYPE svg PUBLIC "-//W3C//DTD SVG 1.1//EN" "http://www.w3.org/Graphics/SVG/1.1/DTD/svg11.dtd">
<svg version="1.1" xmlns="http://www.w3.org/2000/svg" xmlns:xlink="http://www.w3.org/1999/xlink" x="0px" y="0px"
	 width="30.242px" height="44.096px" viewBox="0 0 30.242 44.096" style="enable-background:new 0 0 30.242 44.096;"
	 xml:space="preserve">
<g id="Layer_7">
	<path style="fill:#706F6F;" d="M15.126,44.096l13.087-22.051c1.288-2.162,2.029-4.665,2.029-7.347C30.242,6.584,23.47,0,15.126,0
		C6.775,0,0,6.584,0,14.698c0,2.682,0.747,5.185,2.037,7.347L15.126,44.096z M15.25,5.89c4.973,0,9.003,3.921,9.003,8.755
		c0,4.83-4.03,8.749-9.003,8.749c-4.978,0-9.011-3.919-9.011-8.749C6.239,9.811,10.272,5.89,15.25,5.89z"/>
</g>
<g id="Layer_1">
</g>
</svg>
