<?xml version="1.0" encoding="iso-8859-1"?>
<!-- Generator: Adobe Illustrator 15.0.0, SVG Export Plug-In . SVG Version: 6.00 Build 0)  -->
<!DOCTYPE svg PUBLIC "-//W3C//DTD SVG 1.1//EN" "http://www.w3.org/Graphics/SVG/1.1/DTD/svg11.dtd">
<svg version="1.1" xmlns="http://www.w3.org/2000/svg" xmlns:xlink="http://www.w3.org/1999/xlink" x="0px" y="0px"
	 width="40.995px" height="40.99px" viewBox="0 0 40.995 40.99" style="enable-background:new 0 0 40.995 40.99;"
	 xml:space="preserve">
<g id="_x33_7">
	<path style="fill:#706F6F;" d="M36.438,0H4.556C2.028,0,0,2.05,0,4.553v31.884c0,2.507,2.028,4.554,4.556,4.554h31.882
		c2.528,0,4.557-2.047,4.557-4.554V4.553C40.995,2.05,38.967,0,36.438,0 M36.438,36.437H4.556V4.553h31.882V36.437z M30.285,22.94
		h-7.342v7.343c0,1.349-1.102,2.445-2.447,2.445c-1.346,0-2.444-1.097-2.444-2.445V22.94H10.71c-1.347,0-2.447-1.1-2.447-2.442
		c0-1.346,1.1-2.448,2.447-2.448h7.343v-7.344c0-1.342,1.098-2.448,2.444-2.448c1.345,0,2.447,1.106,2.447,2.448v7.344h7.342
		c1.342,0,2.445,1.103,2.445,2.448C32.73,21.841,31.627,22.94,30.285,22.94"/>
</g>
<g id="Layer_1">
</g>
</svg>
