<?xml version="1.0" encoding="iso-8859-1"?>
<!-- Generator: Adobe Illustrator 15.0.0, SVG Export Plug-In . SVG Version: 6.00 Build 0)  -->
<!DOCTYPE svg PUBLIC "-//W3C//DTD SVG 1.1//EN" "http://www.w3.org/Graphics/SVG/1.1/DTD/svg11.dtd">
<svg version="1.1" xmlns="http://www.w3.org/2000/svg" xmlns:xlink="http://www.w3.org/1999/xlink" x="0px" y="0px"
	 width="40.726px" height="40.92px" viewBox="0 0 40.726 40.92" style="enable-background:new 0 0 40.726 40.92;"
	 xml:space="preserve">
<g id="_x33_6">
	<path style="fill:#706F6F;" d="M38.815,8.414h-6.31V1.913C32.506,0.857,31.651,0,30.593,0H1.913C0.857,0,0,0.857,0,1.913v28.68
		c0,1.059,0.857,1.913,1.913,1.913H8.22v6.498c0,1.059,0.857,1.916,1.913,1.916h28.683c1.056,0,1.91-0.857,1.91-1.916V10.327
		C40.726,9.272,39.871,8.414,38.815,8.414z M8.22,10.327v18.355H3.823V3.826H28.68v4.588H10.133C9.077,8.414,8.22,9.272,8.22,10.327
		z M21.751,28.683h-3.73L28.68,18.027v3.728L21.751,28.683z M28.68,23.378v5.305h-5.303L28.68,23.378z M16.401,28.683H13.05
		L28.68,13.05v3.354L16.401,28.683z M18.789,12.237h3.728L12.046,22.711v-3.73L18.789,12.237z M12.046,17.354v-5.117h5.121
		L12.046,17.354z M24.143,12.237h3.728L12.046,28.062v-3.73L24.143,12.237z M36.899,37.097H12.046v-4.591h18.547
		c1.059,0,1.913-0.854,1.913-1.913V12.237h4.394V37.097z"/>
</g>
<g id="Layer_1">
</g>
</svg>
