<?xml version="1.0" encoding="iso-8859-1"?>
<!-- Generator: Adobe Illustrator 15.0.0, SVG Export Plug-In . SVG Version: 6.00 Build 0)  -->
<!DOCTYPE svg PUBLIC "-//W3C//DTD SVG 1.1//EN" "http://www.w3.org/Graphics/SVG/1.1/DTD/svg11.dtd">
<svg version="1.1" xmlns="http://www.w3.org/2000/svg" xmlns:xlink="http://www.w3.org/1999/xlink" x="0px" y="0px" width="48.87px"
	 height="44.195px" viewBox="0 0 48.87 44.195" style="enable-background:new 0 0 48.87 44.195;" xml:space="preserve">
<g id="_x31_0">
	<g>
		<path style="fill:#706F6F;" d="M48.799,29.752l-1.961-3.396c-0.127-0.214-0.383-0.3-0.605-0.214l-2.442,0.985
			c-0.507-0.393-1.052-0.721-1.657-0.969l-0.364-2.599c-0.042-0.224-0.251-0.405-0.487-0.405h-3.936
			c-0.235,0-0.445,0.182-0.487,0.421l-0.363,2.596c-0.59,0.255-1.151,0.577-1.658,0.969l-2.442-0.981
			c-0.223-0.083-0.479,0-0.605,0.21l-1.965,3.399c-0.123,0.21-0.066,0.475,0.115,0.631l2.076,1.623
			c-0.045,0.313-0.07,0.635-0.07,0.959c0,0.319,0.025,0.645,0.07,0.967l-2.076,1.629c-0.182,0.153-0.238,0.421-0.115,0.632
			l1.965,3.396c0.127,0.21,0.383,0.297,0.605,0.21l2.442-0.981c0.507,0.392,1.056,0.717,1.658,0.973l0.363,2.589
			c0.042,0.226,0.252,0.411,0.487,0.411h3.936c0.236,0,0.445-0.186,0.487-0.421l0.364-2.599c0.592-0.249,1.15-0.574,1.657-0.966
			l2.442,0.985c0.223,0.079,0.479,0,0.605-0.214l1.961-3.399c0.131-0.21,0.074-0.479-0.107-0.631l-2.08-1.626
			c0.045-0.31,0.074-0.635,0.074-0.954c0-0.324-0.029-0.646-0.074-0.972l2.08-1.626C48.873,30.228,48.93,29.963,48.799,29.752z
			 M39.313,35.791c-1.543,0-2.81-1.263-2.81-2.81c0-1.546,1.267-2.809,2.81-2.809c1.544,0,2.81,1.263,2.81,2.809
			C42.123,34.528,40.857,35.791,39.313,35.791z"/>
	</g>
	<g>
		<path style="fill:#706F6F;" d="M26.848,39.071L27,34.098c0.01-0.306-0.227-0.563-0.529-0.573c-0.013,0-0.016,0-0.025,0H18.93
			c-0.137,0-0.274,0.051-0.376,0.14l-2.796,2.586c-0.045,0.045-0.083,0.086-0.112,0.134L13.758,39.7
			c-2.455-1.094-4.658-2.688-6.469-4.674c0.022-0.405,0.022-0.811,0-1.215c-0.042-0.236-0.213-0.434-0.44-0.511
			c-0.182,0-0.357-0.076-0.752,0.268c-0.503-0.704-0.963-1.444-1.374-2.212l2.633,1.402c0.268,0.141,0.603,0.038,0.743-0.232
			c0.042-0.07,0.063-0.153,0.063-0.23l0.23-3.143l2.337-3.565l2.972-3.736c0.191-0.243,0.153-0.59-0.086-0.778
			c-0.025-0.02-0.051-0.035-0.08-0.055l-7.518-4.167c-0.242-0.137-0.552-0.069-0.717,0.156l-1.327,1.878l-1.106,1.288
			c-0.188,0.233-0.156,0.581,0.083,0.772c0,0,0.003,0.006,0.006,0.009l2.965,2.309l-1.339,2.579
			c-0.035,0.064-0.058,0.138-0.067,0.204l-0.309,4.095c-1.961-4.34-2.261-9.244-0.838-13.784l1.68,0.077
			c0.182,0.013,0.357-0.07,0.462-0.224l2.621-3.45c0.092-0.121,0.125-0.277,0.099-0.427L7.618,9.018
			C8.083,8.515,8.571,8.032,9.081,7.58l0.421,0.915c0.067,0.159,0.201,0.277,0.36,0.322h0.146c0.118,0,0.236-0.039,0.332-0.111
			l2.442-1.865c0.051-0.039,0.089-0.077,0.121-0.125l1.792-2.608C20.451,1.751,26.994,2.31,32.271,5.6l-0.673,0.609l-1.426,1.802
			L26.777,7.88c-0.17-0.01-0.336,0.063-0.44,0.194l-1.448,1.737l-0.201-1.737C24.679,7.979,24.641,7.88,24.58,7.8l-1.228-1.581
			c-0.108-0.131-0.265-0.211-0.431-0.211c-0.166,0.02-0.319,0.09-0.434,0.211l-2.796,3.45c-0.191,0.238-0.153,0.586,0.086,0.777
			c0.083,0.066,0.185,0.105,0.29,0.115l2.295,0.232v1.25h-2.206c-0.163,0-0.315,0.066-0.421,0.191l-2.095,2.441
			c-0.21,0.23-0.185,0.578,0.044,0.778c0.131,0.118,0.309,0.163,0.481,0.128l3.944-0.797l1.811,1.029v0.529l-3.6-0.242
			c-0.07-0.01-0.131-0.01-0.201,0l-2.799,0.896c-0.16,0.047-0.287,0.162-0.351,0.318c-0.819,2.012-0.52,2.455-0.411,2.608
			c0.127,0.182,0.325,0.293,0.542,0.3c0.896,0.379,1.747,0.845,2.544,1.393l1.684,4.818c0.417,1.444,0.88,2.267,1.4,2.433
			c0.245,0.076,0.513,0.022,0.708-0.147c1.563-2.129,3.001-4.346,4.32-6.628c0.077-0.153,0.077-0.332,0-0.488l-0.89-2.397
			l1.104-1.381l2.477-1.105l1.015,2.885c0.103,0.287,0.417,0.44,0.704,0.342c0.039-0.01,0.08-0.029,0.115-0.058l2.641-1.786
			c0.535,0.322,1.039,0.692,1.504,1.104c0.518,0.498,1.133,0.877,1.814,1.106c0.197,0.067,0.424,0.019,0.574-0.138l2.213-2.206
			c0.213,0.976,0.328,1.968,0.395,2.966h2.721c-0.332-5.635-2.787-11.146-7.312-15.219C28.377-1.905,15.531-1.905,7.069,5.712
			L5.542,7.277c-8.111,9.228-7.215,23.281,2.009,31.393c6.026,5.303,14.201,6.778,21.445,4.471v-3.743L26.848,39.071z"/>
	</g>
</g>
<g id="Layer_1">
</g>
</svg>
