<?xml version="1.0" encoding="iso-8859-1"?>
<!-- Generator: Adobe Illustrator 15.0.0, SVG Export Plug-In . SVG Version: 6.00 Build 0)  -->
<!DOCTYPE svg PUBLIC "-//W3C//DTD SVG 1.1//EN" "http://www.w3.org/Graphics/SVG/1.1/DTD/svg11.dtd">
<svg version="1.1" xmlns="http://www.w3.org/2000/svg" xmlns:xlink="http://www.w3.org/1999/xlink" x="0px" y="0px"
	 width="44.034px" height="44.035px" viewBox="0 0 44.034 44.035" style="enable-background:new 0 0 44.034 44.035;"
	 xml:space="preserve">
<g id="_x31_2">
	<path style="fill:#706F6F;" d="M42.539,23.484L20.562,1.492C19.605,0.535,18.308-0.007,16.949,0H5.102C2.286-0.007,0,2.276,0,5.094
		v0.01l0.009,11.857c-0.003,1.353,0.536,2.649,1.492,3.603l21.985,21.981c1.992,1.986,5.219,1.986,7.211,0l11.842-11.842
		C44.532,28.707,44.532,25.48,42.539,23.484z M11.545,16.343c-2.748-0.004-4.971-2.226-4.974-4.968c0-2.751,2.226-4.98,4.98-4.983
		h0.006c2.746,0.003,4.971,2.235,4.965,4.983C16.522,14.125,14.29,16.349,11.545,16.343z"/>
</g>
<g id="Layer_1">
</g>
</svg>
