<?xml version="1.0" encoding="iso-8859-1"?>
<!-- Generator: Adobe Illustrator 15.0.0, SVG Export Plug-In . SVG Version: 6.00 Build 0)  -->
<!DOCTYPE svg PUBLIC "-//W3C//DTD SVG 1.1//EN" "http://www.w3.org/Graphics/SVG/1.1/DTD/svg11.dtd">
<svg version="1.1" xmlns="http://www.w3.org/2000/svg" xmlns:xlink="http://www.w3.org/1999/xlink" x="0px" y="0px"
	 width="39.371px" height="39.367px" viewBox="0 0 39.371 39.367" style="enable-background:new 0 0 39.371 39.367;"
	 xml:space="preserve">
<g id="_x31_9">
	<path style="fill:#706F6F;" d="M38.973,37.814c0.061-0.089,0.131-0.165,0.182-0.271c0.044-0.111,0.048-0.245,0.076-0.363
		c0.02-0.112,0.063-0.211,0.067-0.325l0.073-11.874c0.01-0.998-0.794-1.802-1.786-1.812c-0.5,0-0.953,0.198-1.281,0.526
		c-0.319,0.325-0.523,0.771-0.529,1.257l-0.048,7.582l-8.462-8.463c-0.695-0.694-1.834-0.697-2.535,0
		c-0.704,0.702-0.704,1.847-0.006,2.542l8.462,8.462l-7.579,0.048c-0.487,0.006-0.931,0.207-1.26,0.532
		c-0.325,0.322-0.529,0.778-0.525,1.278c0.01,0.988,0.816,1.789,1.811,1.786l11.874-0.077c0.118-0.003,0.214-0.048,0.325-0.066
		c0.127-0.029,0.255-0.029,0.366-0.077c0.103-0.051,0.182-0.117,0.271-0.175c0.102-0.073,0.214-0.121,0.303-0.211
		C38.857,38.028,38.905,37.914,38.973,37.814z"/>
	<path style="fill:#706F6F;" d="M1.046,0.902c-0.057,0.09-0.124,0.169-0.175,0.271C0.823,1.285,0.82,1.419,0.794,1.54
		C0.775,1.648,0.73,1.744,0.727,1.865L0.65,13.739c-0.006,0.995,0.797,1.802,1.786,1.811c0.504,0,0.957-0.2,1.282-0.525
		c0.322-0.329,0.523-0.772,0.529-1.26l0.048-7.579l8.462,8.459c0.695,0.701,1.837,0.701,2.535,0
		c0.701-0.701,0.701-1.843,0.006-2.541L6.836,3.645l7.582-0.048c0.485-0.006,0.931-0.204,1.256-0.529
		c0.329-0.328,0.529-0.781,0.526-1.278C16.191,0.794,15.388-0.01,14.39,0L2.516,0.073C2.401,0.077,2.302,0.121,2.19,0.141
		C2.066,0.169,1.936,0.169,1.827,0.217C1.722,0.265,1.646,0.338,1.556,0.398C1.457,0.466,1.343,0.514,1.253,0.603
		C1.167,0.689,1.119,0.801,1.046,0.902z"/>
	<path style="fill:#706F6F;" d="M37.821,1.04c-0.093-0.058-0.172-0.125-0.274-0.173c-0.111-0.048-0.242-0.057-0.366-0.079
		c-0.112-0.017-0.204-0.067-0.322-0.07l-11.877-0.07c-0.991-0.007-1.798,0.791-1.808,1.782c0,0.501,0.201,0.953,0.526,1.282
		c0.325,0.325,0.768,0.525,1.259,0.529l7.579,0.044l-8.459,8.466c-0.701,0.698-0.701,1.833,0,2.534
		c0.698,0.705,1.84,0.705,2.541,0.007l8.466-8.466l0.038,7.586c0.01,0.487,0.21,0.934,0.535,1.253
		c0.325,0.328,0.781,0.532,1.282,0.526c0.985-0.007,1.789-0.811,1.782-1.805L38.65,2.51c-0.007-0.118-0.055-0.211-0.07-0.322
		c-0.028-0.128-0.028-0.252-0.083-0.363c-0.041-0.105-0.108-0.186-0.166-0.274c-0.079-0.099-0.124-0.217-0.213-0.3
		C38.035,1.161,37.92,1.116,37.821,1.04z"/>
	<path style="fill:#706F6F;" d="M0.909,38.969c0.086,0.058,0.166,0.131,0.265,0.176c0.118,0.048,0.249,0.054,0.37,0.08
		c0.108,0.021,0.207,0.063,0.322,0.069l11.874,0.073c0.995,0.007,1.805-0.797,1.814-1.788c0-0.501-0.198-0.957-0.529-1.282
		c-0.319-0.322-0.768-0.52-1.259-0.525L6.186,35.72l8.459-8.458c0.702-0.695,0.705-1.837,0.003-2.539
		c-0.702-0.701-1.843-0.701-2.544,0l-8.456,8.459L3.6,25.6c-0.01-0.484-0.204-0.934-0.526-1.256
		c-0.328-0.332-0.784-0.532-1.282-0.529C0.797,23.821-0.009,24.631,0,25.625l0.07,11.877c0.01,0.115,0.054,0.217,0.07,0.322
		c0.032,0.125,0.038,0.255,0.083,0.37c0.041,0.099,0.121,0.175,0.178,0.265c0.067,0.105,0.118,0.217,0.204,0.306
		C0.695,38.848,0.801,38.902,0.909,38.969z"/>
</g>
<g id="Layer_1">
</g>
</svg>
