<?xml version="1.0" encoding="iso-8859-1"?>
<!-- Generator: Adobe Illustrator 15.0.0, SVG Export Plug-In . SVG Version: 6.00 Build 0)  -->
<!DOCTYPE svg PUBLIC "-//W3C//DTD SVG 1.1//EN" "http://www.w3.org/Graphics/SVG/1.1/DTD/svg11.dtd">
<svg version="1.1" xmlns="http://www.w3.org/2000/svg" xmlns:xlink="http://www.w3.org/1999/xlink" x="0px" y="0px"
	 width="40.993px" height="40.99px" viewBox="0 0 40.993 40.99" style="enable-background:new 0 0 40.993 40.99;"
	 xml:space="preserve">
<g id="_x33_8">
	<path style="fill:#706F6F;" d="M30.287,22.94H10.709c-1.349,0-2.448-1.1-2.448-2.442c0-1.346,1.1-2.448,2.448-2.448h19.578
		c1.342,0,2.441,1.103,2.441,2.448C32.729,21.841,31.629,22.94,30.287,22.94 M36.438,0H4.556C2.028,0,0,2.05,0,4.553v31.884
		c0,2.507,2.028,4.554,4.556,4.554h31.881c2.527,0,4.556-2.047,4.556-4.554V4.553C40.993,2.05,38.965,0,36.438,0 M36.438,36.437
		H4.556V4.553h31.881V36.437z"/>
</g>
<g id="Layer_1">
</g>
</svg>
