<?xml version="1.0" encoding="iso-8859-1"?>
<!-- Generator: Adobe Illustrator 15.0.0, SVG Export Plug-In . SVG Version: 6.00 Build 0)  -->
<!DOCTYPE svg PUBLIC "-//W3C//DTD SVG 1.1//EN" "http://www.w3.org/Graphics/SVG/1.1/DTD/svg11.dtd">
<svg version="1.1" xmlns="http://www.w3.org/2000/svg" xmlns:xlink="http://www.w3.org/1999/xlink" x="0px" y="0px"
	 width="44.186px" height="44.213px" viewBox="0 0 44.186 44.213" style="enable-background:new 0 0 44.186 44.213;"
	 xml:space="preserve">
<g id="Layer_3">
	<path style="fill:#706F6F;" d="M36.832,5.716c-8.457-7.62-21.299-7.623-29.765-0.003L5.54,7.279
		c-8.11,9.225-7.209,23.279,2.009,31.39c8.373,7.368,20.897,7.391,29.301,0.072l1.623-1.616C46.689,28,45.957,13.939,36.832,5.716z
		 M38.814,20.179l2.213-2.209c0.289,1.313,0.445,2.652,0.463,4.001l-4.697,2.764c-0.211,0.127-0.313,0.373-0.256,0.605l0.875,3.453
		c0.035,0.146,0.133,0.274,0.264,0.351c0.145,0.061,0.301,0.061,0.443,0l2.334-0.771c-0.992,2.901-2.65,5.532-4.846,7.671
		l-2.057,0.08c-0.109,0.003-0.215,0.038-0.307,0.108l-4.189,3.169l-2.209-0.328l0.152-4.974c0.014-0.307-0.227-0.564-0.529-0.577
		c-0.01-0.004-0.014-0.004-0.021-0.004h-7.519c-0.137,0-0.275,0.055-0.374,0.147l-2.796,2.585c-0.045,0.039-0.083,0.084-0.112,0.135
		l-1.891,3.315c-2.455-1.097-4.655-2.688-6.469-4.677c0.022-0.402,0.022-0.807,0-1.215c-0.042-0.236-0.211-0.431-0.44-0.508
		c-0.179,0-0.354-0.076-0.752,0.266c-0.504-0.705-0.96-1.445-1.371-2.213l2.63,1.406C7.625,32.9,7.96,32.796,8.1,32.524
		c0.038-0.067,0.061-0.15,0.061-0.227l0.233-3.144l2.337-3.567l2.972-3.737c0.191-0.239,0.149-0.59-0.09-0.778
		c-0.022-0.019-0.048-0.035-0.079-0.051l-7.516-4.167c-0.245-0.141-0.552-0.07-0.721,0.153l-1.323,1.881l-1.106,1.281
		c-0.19,0.236-0.159,0.584,0.08,0.775c0,0.003,0.007,0.01,0.01,0.013l2.962,2.307l-1.336,2.576
		c-0.038,0.064-0.061,0.135-0.067,0.208l-0.313,4.094c-1.957-4.339-2.26-9.246-0.835-13.783l1.677,0.073
		c0.183,0.016,0.36-0.07,0.466-0.221l2.618-3.449c0.092-0.121,0.127-0.281,0.099-0.431L7.619,9.017
		c0.463-0.504,0.95-0.982,1.461-1.436L9.5,8.494c0.066,0.159,0.2,0.277,0.363,0.322h0.146c0.114,0,0.232-0.038,0.328-0.108
		l2.442-1.868c0.051-0.035,0.09-0.074,0.124-0.125l1.792-2.607c5.756-2.354,12.295-1.799,17.575,1.495L31.596,6.21L30.17,8.009
		l-3.393-0.131c-0.172-0.006-0.334,0.066-0.443,0.197L24.887,9.81l-0.201-1.734c-0.006-0.099-0.047-0.197-0.104-0.277L23.35,6.22
		c-0.104-0.134-0.26-0.21-0.43-0.21c-0.166,0.019-0.318,0.089-0.434,0.21L19.69,9.67c-0.191,0.235-0.15,0.587,0.09,0.774
		c0.082,0.067,0.184,0.108,0.289,0.118l2.296,0.233v1.246h-2.21c-0.162,0-0.313,0.07-0.42,0.188l-2.095,2.449
		c-0.207,0.227-0.185,0.574,0.045,0.775c0.13,0.117,0.309,0.165,0.484,0.127l3.944-0.794l1.811,1.026v0.529l-3.6-0.238
		c-0.069-0.014-0.134-0.014-0.2,0l-2.799,0.893c-0.156,0.048-0.287,0.166-0.354,0.322c-0.819,2.008-0.517,2.455-0.411,2.607
		c0.128,0.182,0.325,0.29,0.545,0.297c0.894,0.379,1.748,0.845,2.542,1.396l1.683,4.817c0.422,1.444,0.881,2.267,1.404,2.433
		c0.244,0.073,0.514,0.022,0.705-0.146c1.561-2.13,3.002-4.346,4.322-6.628c0.074-0.159,0.074-0.334,0-0.487l-0.893-2.397
		l1.104-1.385l2.477-1.105l1.018,2.889c0.102,0.287,0.414,0.439,0.701,0.341c0.039-0.013,0.084-0.032,0.119-0.058l2.639-1.789
		c0.533,0.322,1.039,0.695,1.502,1.107c0.518,0.497,1.135,0.873,1.814,1.105C38.438,20.38,38.668,20.333,38.814,20.179z"/>
</g>
<g id="Layer_1">
</g>
</svg>
