<?xml version="1.0" encoding="iso-8859-1"?>
<!-- Generator: Adobe Illustrator 15.0.0, SVG Export Plug-In . SVG Version: 6.00 Build 0)  -->
<!DOCTYPE svg PUBLIC "-//W3C//DTD SVG 1.1//EN" "http://www.w3.org/Graphics/SVG/1.1/DTD/svg11.dtd">
<svg version="1.1" xmlns="http://www.w3.org/2000/svg" xmlns:xlink="http://www.w3.org/1999/xlink" x="0px" y="0px" width="37.32px"
	 height="40.716px" viewBox="0 0 37.32 40.716" style="enable-background:new 0 0 37.32 40.716;" xml:space="preserve">
<g id="_x36_8">
	<path style="fill:#575756;" d="M37.32,9.329v24.599c0,3.733-3.055,6.788-6.787,6.788H18.149c-1.833,0-3.561-0.73-4.833-2.021
		L0,25.159c0,0,2.136-2.089,2.205-2.12c0.373-0.322,0.832-0.491,1.34-0.491c0.375,0,0.711,0.103,1.016,0.268
		c0.072,0.02,7.314,4.171,7.314,4.171V6.784c0-1.405,1.135-2.544,2.543-2.544c1.407,0,2.546,1.139,2.546,2.544v11.877h1.696V2.544
		C18.66,1.135,19.796,0,21.206,0c1.405,0,2.542,1.135,2.542,2.544v16.117h1.697V4.24c0-1.409,1.138-2.545,2.544-2.545
		c1.407,0,2.544,1.136,2.544,2.545v14.421h1.698V9.329c0-1.409,1.135-2.545,2.542-2.545C36.184,6.784,37.32,7.92,37.32,9.329"/>
</g>
<g id="Layer_1">
</g>
</svg>
