<?xml version="1.0" encoding="iso-8859-1"?>
<!-- Generator: Adobe Illustrator 15.0.0, SVG Export Plug-In . SVG Version: 6.00 Build 0)  -->
<!DOCTYPE svg PUBLIC "-//W3C//DTD SVG 1.1//EN" "http://www.w3.org/Graphics/SVG/1.1/DTD/svg11.dtd">
<svg version="1.1" xmlns="http://www.w3.org/2000/svg" xmlns:xlink="http://www.w3.org/1999/xlink" x="0px" y="0px" width="40.57px"
	 height="40.566px" viewBox="0 0 40.57 40.566" style="enable-background:new 0 0 40.57 40.566;" xml:space="preserve">
<g id="_x33_5">
	<path style="fill:#706F6F;" d="M38.77,0H23.508c-0.991,0-1.799,0.807-1.799,1.795v15.266c0,0.992,0.808,1.799,1.799,1.799H38.77
		c0.993,0,1.801-0.807,1.801-1.799V1.795C40.57,0.807,39.763,0,38.77,0z M36.969,3.603v11.66H25.311V3.603H36.969z"/>
	<path style="fill:#706F6F;" d="M38.745,21.486H23.316c-1.006,0-1.824,0.822-1.824,1.827v15.432c0,1.005,0.818,1.821,1.824,1.821
		h15.429c1.008,0,1.825-0.816,1.825-1.821V23.313C40.57,22.309,39.753,21.486,38.745,21.486z M36.92,25.141v11.781H25.144V25.141
		H36.92z"/>
	<path style="fill:#706F6F;" d="M17.032,0H1.813C0.813,0,0,0.813,0,1.808v15.225c0,1.001,0.813,1.814,1.813,1.814h15.22
		c0.998,0,1.813-0.813,1.813-1.814V1.808C18.845,0.813,18.03,0,17.032,0z M15.218,3.628v11.594H3.628V3.628H15.218z"/>
	<path style="fill:#706F6F;" d="M16.957,21.818H1.789C0.802,21.818,0,22.625,0,23.613V38.78c0,0.982,0.802,1.786,1.789,1.786h15.168
		c0.987,0,1.789-0.804,1.789-1.786V23.613C18.746,22.625,17.944,21.818,16.957,21.818z M15.167,25.405v11.587H3.582V25.405H15.167z"
		/>
</g>
<g id="Layer_1">
</g>
</svg>
