<?xml version="1.0" encoding="iso-8859-1"?>
<!-- Generator: Adobe Illustrator 15.0.0, SVG Export Plug-In . SVG Version: 6.00 Build 0)  -->
<!DOCTYPE svg PUBLIC "-//W3C//DTD SVG 1.1//EN" "http://www.w3.org/Graphics/SVG/1.1/DTD/svg11.dtd">
<svg version="1.1" xmlns="http://www.w3.org/2000/svg" xmlns:xlink="http://www.w3.org/1999/xlink" x="0px" y="0px" width="40.41px"
	 height="40.406px" viewBox="0 0 40.41 40.406" style="enable-background:new 0 0 40.41 40.406;" xml:space="preserve">
<g id="Layer_10">
	<g>
		<path style="fill:#706F6F;" d="M18.368,36.625v3.781h3.675v-3.781c7.656-0.842,13.74-6.926,14.582-14.584h3.785v-3.676h-3.785
			c-0.842-7.656-6.926-13.739-14.582-14.581V0h-3.675v3.784c-7.658,0.842-13.74,6.925-14.582,14.581H0v3.676h3.785
			C4.627,29.699,10.709,35.783,18.368,36.625z M20.204,7.349c7.107,0,12.859,5.746,12.859,12.859
			c0,7.104-5.752,12.849-12.859,12.849c-7.107,0-12.855-5.744-12.855-12.849C7.348,13.095,13.096,7.349,20.204,7.349z"/>
		<path style="fill:#706F6F;" d="M20.204,27.551c4.06,0,7.347-3.291,7.347-7.343c0-4.063-3.287-7.35-7.347-7.35
			c-4.057,0-7.344,3.287-7.344,7.35C12.86,24.26,16.147,27.551,20.204,27.551z"/>
	</g>
</g>
<g id="Layer_1">
</g>
</svg>
