<?xml version="1.0" encoding="iso-8859-1"?>
<!-- Generator: Adobe Illustrator 15.0.0, SVG Export Plug-In . SVG Version: 6.00 Build 0)  -->
<!DOCTYPE svg PUBLIC "-//W3C//DTD SVG 1.1//EN" "http://www.w3.org/Graphics/SVG/1.1/DTD/svg11.dtd">
<svg version="1.1" xmlns="http://www.w3.org/2000/svg" xmlns:xlink="http://www.w3.org/1999/xlink" x="0px" y="0px"
	 width="43.622px" height="33.035px" viewBox="0 0 43.622 33.035" style="enable-background:new 0 0 43.622 33.035;"
	 xml:space="preserve">
<g id="_x34_">
	<path style="fill:#706F6F;" d="M5.069,22.896C2.276,22.896,0,25.169,0,27.965c0,2.797,2.276,5.07,5.069,5.07
		c2.796,0,5.07-2.273,5.07-5.07C10.139,25.169,7.866,22.896,5.069,22.896z"/>
	<path style="fill:#706F6F;" d="M9.929,7.63l-4.18-7.241C5.608,0.149,5.35,0,5.069,0C4.795,0,4.534,0.149,4.4,0.389L0.217,7.63
		c-0.137,0.239-0.137,0.538,0,0.777C0.357,8.65,0.612,8.8,0.893,8.8H9.25c0.277,0,0.536-0.149,0.679-0.393
		C10.066,8.168,10.066,7.869,9.929,7.63z"/>
	<path style="fill:#706F6F;" d="M9.25,10.914H0.893c-0.43,0-0.781,0.351-0.781,0.781v8.356c0,0.434,0.351,0.781,0.781,0.781H9.25
		c0.431,0,0.781-0.348,0.781-0.781v-8.356C10.031,11.265,9.68,10.914,9.25,10.914z"/>
	<path style="fill:#706F6F;" d="M16.883,5.685h25.579c0.644,0,1.16-0.577,1.16-1.285s-0.517-1.288-1.16-1.288H16.883
		c-0.641,0-1.167,0.58-1.167,1.288S16.242,5.685,16.883,5.685z"/>
	<path style="fill:#706F6F;" d="M42.462,26.737H16.883c-0.641,0-1.167,0.577-1.167,1.285s0.526,1.288,1.167,1.288h25.579
		c0.644,0,1.16-0.58,1.16-1.288S43.105,26.737,42.462,26.737z"/>
	<path style="fill:#706F6F;" d="M42.462,14.928H16.883c-0.641,0-1.167,0.574-1.167,1.285c0,0.708,0.526,1.285,1.167,1.285h25.579
		c0.644,0,1.16-0.577,1.16-1.285C43.622,15.502,43.105,14.928,42.462,14.928z"/>
</g>
<g id="Layer_1">
</g>
</svg>
